<?xml version="1.0" standalone="no"?>
<!DOCTYPE svg PUBLIC "-//W3C//DTD SVG 20010904//EN"
 "http://www.w3.org/TR/2001/REC-SVG-20010904/DTD/svg10.dtd">
<svg version="1.0" xmlns="http://www.w3.org/2000/svg"
 width="700.000000pt" height="700.000000pt" viewBox="0 0 700.000000 700.000000"
 preserveAspectRatio="xMidYMid meet">
<metadata>
Created by potrace 1.14, written by Peter Selinger 2001-2017
</metadata>
<g transform="translate(0.000000,700.000000) scale(0.100000,-0.100000)"
fill="#000000" stroke="none">
<path d="M3291 6587 c-208 -31 -366 -91 -605 -229 -67 -39 -146 -84 -176 -101
-30 -16 -62 -36 -71 -43 -8 -8 -18 -14 -22 -14 -3 0 -70 -38 -149 -83 -170
-99 -588 -341 -638 -370 -272 -153 -407 -237 -493 -306 -40 -32 -154 -147
-199 -201 -95 -114 -181 -267 -236 -420 -41 -115 -60 -198 -77 -330 -3 -25 -5
-229 -3 -455 3 -460 3 -1148 -1 -1360 -2 -157 3 -214 30 -331 21 -94 32 -123
73 -184 167 -256 540 -294 754 -77 46 47 127 179 275 447 16 30 38 67 49 82
10 14 18 28 18 31 0 3 23 45 51 94 28 48 61 106 74 128 12 22 48 85 80 140 31
55 69 120 83 145 13 25 49 87 79 138 30 51 53 94 51 95 -9 5 -68 39 -243 141
-104 61 -205 124 -223 140 -43 39 -82 124 -82 177 0 67 32 123 82 142 23 9 38
20 35 24 -4 3 30 22 75 40 46 19 92 38 103 43 11 5 99 43 195 84 181 77 408
176 518 227 35 16 65 29 67 29 2 0 43 18 90 40 47 22 88 40 90 40 3 0 33 13
67 29 35 15 144 63 243 105 99 43 194 84 211 91 51 24 220 93 394 161 143 57
175 66 240 69 176 7 306 -97 325 -260 4 -33 8 -71 10 -85 2 -14 7 -52 10 -85
4 -33 8 -71 10 -85 2 -14 7 -52 10 -85 4 -33 8 -71 10 -85 8 -54 15 -107 20
-155 6 -55 11 -102 25 -215 5 -41 12 -100 15 -130 4 -30 8 -66 10 -80 2 -14 6
-50 10 -80 7 -66 14 -123 20 -170 2 -19 7 -60 11 -90 3 -30 8 -68 10 -85 2
-16 6 -52 9 -80 3 -27 10 -84 15 -125 5 -41 12 -100 15 -130 4 -30 8 -68 10
-85 2 -16 9 -70 15 -120 16 -137 22 -188 25 -215 2 -14 7 -54 10 -90 4 -36 10
-85 14 -110 9 -58 -1 -115 -24 -140 -10 -11 -20 -18 -23 -15 -3 3 -11 -4 -19
-14 -14 -20 -67 -34 -143 -36 -34 -1 -63 7 -120 36 -84 43 -155 83 -218 123
-23 14 -44 26 -47 26 -2 0 -38 20 -79 44 l-75 45 -34 -57 c-19 -31 -46 -77
-59 -102 -14 -25 -121 -209 -238 -410 -117 -201 -222 -382 -234 -404 -11 -21
-25 -46 -31 -55 -60 -96 -156 -276 -169 -315 -83 -249 60 -530 313 -616 117
-39 228 -31 431 32 111 35 233 98 580 298 184 106 434 250 555 320 754 434
743 427 895 579 101 102 182 211 248 332 76 141 143 361 158 513 9 94 9 1890
0 1986 -31 322 -199 662 -438 886 -109 102 -191 156 -527 350 -179 103 -508
293 -731 422 -490 284 -565 324 -668 362 -246 90 -474 114 -721 77z m-1820
-2851 c-15 -16 -34 -24 -53 -24 -16 1 -25 5 -21 9 7 7 76 36 92 38 3 1 -6 -10
-18 -23z"/>
</g>
</svg>
