<svg id="Layer_1" data-name="Layer 1" xmlns="http://www.w3.org/2000/svg" xmlns:xlink="http://www.w3.org/1999/xlink" viewBox="0 0 1057.86 285.6"><defs><style>.cls-1,.cls-9{fill:url(#linear-gradient);}.cls-1,.cls-2,.cls-3,.cls-4,.cls-7,.cls-8{clip-rule:evenodd;}.cls-12,.cls-2{fill:url(#linear-gradient-2);}.cls-15,.cls-3{fill:url(#linear-gradient-3);}.cls-18,.cls-4{fill:url(#linear-gradient-4);}.cls-5{fill:url(#linear-gradient-5);}.cls-6{fill:url(#linear-gradient-6);}.cls-26,.cls-7{fill:url(#linear-gradient-7);}.cls-29,.cls-8{fill:url(#linear-gradient-8);}.cls-12,.cls-15,.cls-18,.cls-21,.cls-26,.cls-29,.cls-9{fill-rule:evenodd;}.cls-10{clip-path:url(#clip-path);}.cls-11{fill:url(#linear-gradient-10);}.cls-13{clip-path:url(#clip-path-2);}.cls-14{fill:url(#linear-gradient-12);}.cls-16{clip-path:url(#clip-path-3);}.cls-17{fill:url(#linear-gradient-14);}.cls-19{clip-path:url(#clip-path-4);}.cls-20{fill:url(#linear-gradient-16);}.cls-21{fill:#296358;}.cls-22{clip-path:url(#clip-path-5);}.cls-23{fill:url(#linear-gradient-18);}.cls-24{clip-path:url(#clip-path-6);}.cls-25{fill:url(#linear-gradient-20);}.cls-27{clip-path:url(#clip-path-7);}.cls-28{fill:url(#linear-gradient-22);}.cls-30{clip-path:url(#clip-path-8);}.cls-31{fill:url(#linear-gradient-24);}.cls-32{fill:#fff;}</style><linearGradient id="linear-gradient" x1="675.93" y1="1165.68" x2="675.93" y2="1040.5" gradientUnits="userSpaceOnUse"><stop offset="0" stop-color="#d16d00"/><stop offset="0.09" stop-color="#d67e00"/><stop offset="0.4" stop-color="#e8b500"/><stop offset="0.66" stop-color="#f4dd00"/><stop offset="0.87" stop-color="#fcf600"/><stop offset="1" stop-color="#ff0"/></linearGradient><linearGradient id="linear-gradient-2" x1="583.88" y1="1253.06" x2="814.23" y2="928.08" gradientUnits="userSpaceOnUse"><stop offset="0" stop-color="#e67c00"/><stop offset="0.14" stop-color="#e88500"/><stop offset="0.37" stop-color="#ed9f00"/><stop offset="0.67" stop-color="#f5c900"/><stop offset="1" stop-color="#ff0"/></linearGradient><linearGradient id="linear-gradient-3" x1="584.71" y1="989.03" x2="748.77" y2="989.03" gradientUnits="userSpaceOnUse"><stop offset="0" stop-color="#00626b"/><stop offset="1" stop-color="#39beef"/></linearGradient><linearGradient id="linear-gradient-4" x1="798.04" y1="1171.69" x2="621.37" y2="817.08" gradientUnits="userSpaceOnUse"><stop offset="0" stop-color="#006253"/><stop offset="0.06" stop-color="#04685e"/><stop offset="0.52" stop-color="#2096ac"/><stop offset="0.84" stop-color="#32b3dc"/><stop offset="1" stop-color="#39beef"/></linearGradient><linearGradient id="linear-gradient-5" x1="487.16" y1="976.2" x2="659.95" y2="976.2" gradientUnits="userSpaceOnUse"><stop offset="0.02" stop-color="#00b3d4"/><stop offset="0.49" stop-color="#4cbeb3"/><stop offset="0.83" stop-color="#7cc59e"/><stop offset="1" stop-color="#8fc896"/></linearGradient><linearGradient id="linear-gradient-6" x1="428.97" y1="1003.7" x2="652.61" y2="909.24" gradientUnits="userSpaceOnUse"><stop offset="0.02" stop-color="#3fc6e7"/><stop offset="0.17" stop-color="#4dc6d9"/><stop offset="0.72" stop-color="#7dc8a9"/><stop offset="1" stop-color="#8fc896"/></linearGradient><linearGradient id="linear-gradient-7" x1="487.16" y1="1048.68" x2="560.76" y2="1048.68" gradientUnits="userSpaceOnUse"><stop offset="0.01" stop-color="#008fd4"/><stop offset="0.11" stop-color="#239bc7"/><stop offset="0.25" stop-color="#4ba9b8"/><stop offset="0.38" stop-color="#6bb4ac"/><stop offset="0.52" stop-color="#84bda2"/><stop offset="0.67" stop-color="#96c39b"/><stop offset="0.82" stop-color="#a1c797"/><stop offset="1" stop-color="#a4c896"/></linearGradient><linearGradient id="linear-gradient-8" x1="511.17" y1="1168.22" x2="511.17" y2="985.17" gradientUnits="userSpaceOnUse"><stop offset="0.01" stop-color="#008fd4"/><stop offset="0.21" stop-color="#2aa0c2"/><stop offset="0.52" stop-color="#6bb9a6"/><stop offset="0.72" stop-color="#7cc09f"/><stop offset="1" stop-color="#8fc896"/></linearGradient><clipPath id="clip-path" transform="translate(-487.16 -881.27)"><path class="cls-1" d="M748.77,1040.5v21.94c0,24.42-12.11,45.39-33.26,57.6l-64.29,37.12a68.11,68.11,0,0,1-21.93,8.14,22.17,22.17,0,0,1-23.15-32.9l32.72-56.66,18.23,10.52a15.58,15.58,0,0,0,3.44,1.49h0c34.65,14.8,88.24,3.27,88.24-47.25"/></clipPath><linearGradient id="linear-gradient-10" x1="188.09" y1="285.6" x2="188.09" y2="159.23" xlink:href="#linear-gradient"/><clipPath id="clip-path-2" transform="translate(-487.16 -881.27)"><path class="cls-2" d="M748.77,1040.5v21.94c0,24.42-12.11,45.39-33.26,57.6l-64.29,37.12a68.11,68.11,0,0,1-21.93,8.14,21.75,21.75,0,0,1-22-8.9c25.17-6.88,57.11-23.44,77.88-62.85,30.84,2.1,63.57-13.57,63.57-53"/></clipPath><linearGradient id="linear-gradient-12" x1="53.18" y1="416.7" x2="297.16" y2="72.48" xlink:href="#linear-gradient-2"/><clipPath id="clip-path-3" transform="translate(-487.16 -881.27)"><path class="cls-3" d="M651.22,893.48l64.29,37.12c21.15,12.21,33.26,33.18,33.26,57.6v52.3c0,50.52-53.59,62-88.24,47.25a11.64,11.64,0,0,0,7.9-.29,7.32,7.32,0,0,0,4.63-8L659.92,969.74c-4-33.57-22.48-64.47-75.21-76.26,21.15-12.21,45.36-12.21,66.51,0"/></clipPath><linearGradient id="linear-gradient-14" x1="97.55" y1="110.64" x2="261.61" y2="110.64" xlink:href="#linear-gradient-3"/><clipPath id="clip-path-4" transform="translate(-487.16 -881.27)"><path class="cls-4" d="M651.22,893.48l64.29,37.12c21.15,12.21,33.26,33.18,33.26,57.6v52.3c0,25.94-14.14,41.6-32.58,48.7h0S741,908.9,605.29,885.6c15.43-3.13,31.4-.51,45.93,7.88"/></clipPath><linearGradient id="linear-gradient-16" x1="321.23" y1="368.21" x2="114.64" y2="-46.44" xlink:href="#linear-gradient-4"/><clipPath id="clip-path-5" transform="translate(-487.16 -881.27)"><path class="cls-5" d="M660,970c-1.21-4.62-1.94-6.68-6.24-9.17-3.33-1.94-7.52-2.82-10.88-1.88h0a9.75,9.75,0,0,0-1,.35l0,0c-33.16,12.45-66.59,28.93-100,42.24-16.47,6.56-52.85,24.7-54.69,57.34V988.2c0-24.42,12.1-45.39,33.25-57.6l64.3-37.12c52.73,11.79,71.18,42.69,75.21,76.26Z"/></clipPath><linearGradient id="linear-gradient-18" x1="-69.29" y1="160.69" x2="209.72" y2="42.84" xlink:href="#linear-gradient-5"/><clipPath id="clip-path-6" transform="translate(-487.16 -881.27)"><path class="cls-6" d="M487.16,1023.56V988.2c0-24.42,12.1-45.39,33.25-57.6l64.3-37.12c24.74,5.53,41.93,15.27,53.63,27.52-145.81,31.67-151.18,102.56-151.18,102.56"/></clipPath><linearGradient id="linear-gradient-20" x1="-39.43" y1="125.84" x2="239.58" y2="7.98" xlink:href="#linear-gradient-6"/><clipPath id="clip-path-7" transform="translate(-487.16 -881.27)"><path class="cls-7" d="M534.77,1004.63l0,0-2.6,1.23-.17.08-.77.39-.12,0-.79.4-.27.14-.66.34-.07,0-.79.41-.07,0-.64.34-.3.16-.12.06-.9.49-.07,0-1,.53h0l-1,.55,0,0-1,.6h0c-.68.39-1.36.8-2,1.22l-.15.09-.91.56-.08,0-1,.6-.13.09-.94.61-.06,0-1,.66-.08,0-1,.65-.13.08-.93.66-.09.06-1,.68-.07.06c-13.41,9.72-25.67,23.61-26.71,42.2v3.52a69.6,69.6,0,0,0,1.8,15.89,22.17,22.17,0,0,0,40.79,6l31-53.71L542.38,1020c-3.83-2.2-6.34-6.16-6.71-9.22-.52-4.34,1.89-6.87,5.38-8.91-1.89.76-4,1.67-6.28,2.73"/></clipPath><linearGradient id="linear-gradient-22" x1="170.09" y1="112.95" x2="-44.14" y2="201.37" xlink:href="#linear-gradient-7"/><clipPath id="clip-path-8" transform="translate(-487.16 -881.27)"><path class="cls-8" d="M519,1013.21c-15.25,9.77-30.68,24.75-31.86,45.71v3.52a69.6,69.6,0,0,0,1.8,15.89,22.17,22.17,0,0,0,40.79,6l5.43-9.42c-9.51-13.87-16.94-33.75-16.16-61.73"/></clipPath><linearGradient id="linear-gradient-24" x1="24.01" y1="304.84" x2="24.01" y2="51.28" xlink:href="#linear-gradient-8"/></defs><path class="cls-9" d="M748.77,1040.5v21.94c0,24.42-12.11,45.39-33.26,57.6l-64.29,37.12a68.11,68.11,0,0,1-21.93,8.14,22.17,22.17,0,0,1-23.15-32.9l32.72-56.66,18.23,10.52a15.58,15.58,0,0,0,3.44,1.49h0c34.65,14.8,88.24,3.27,88.24-47.25" transform="translate(-487.16 -881.27)"/><g class="cls-10"><rect class="cls-11" x="114.57" y="159.23" width="147.04" height="126.37"/></g><path class="cls-12" d="M748.77,1040.5v21.94c0,24.42-12.11,45.39-33.26,57.6l-64.29,37.12a68.11,68.11,0,0,1-21.93,8.14,21.75,21.75,0,0,1-22-8.9c25.17-6.88,57.11-23.44,77.88-62.85,30.84,2.1,63.57-13.57,63.57-53" transform="translate(-487.16 -881.27)"/><g class="cls-13"><rect class="cls-14" x="120.16" y="159.23" width="141.45" height="126.36"/></g><path class="cls-15" d="M651.22,893.48l64.29,37.12c21.15,12.21,33.26,33.18,33.26,57.6v52.3c0,50.52-53.59,62-88.24,47.25a11.64,11.64,0,0,0,7.9-.29,7.32,7.32,0,0,0,4.63-8L659.92,969.74c-4-33.57-22.48-64.47-75.21-76.26,21.15-12.21,45.36-12.21,66.51,0" transform="translate(-487.16 -881.27)"/><g class="cls-16"><rect class="cls-17" x="97.55" width="164.06" height="221.28"/></g><path class="cls-18" d="M651.22,893.48l64.29,37.12c21.15,12.21,33.26,33.18,33.26,57.6v52.3c0,25.94-14.14,41.6-32.58,48.7h0S741,908.9,605.29,885.6c15.43-3.13,31.4-.51,45.93,7.88" transform="translate(-487.16 -881.27)"/><g class="cls-19"><rect class="cls-20" x="118.14" y="1.2" width="143.47" height="206.73"/></g><path class="cls-21" d="M653.57,1084.23h0Zm94.95-38.07c-3.86,45.7-54.68,55.82-88,41.59a11.64,11.64,0,0,0,7.9-.29,9.11,9.11,0,0,0,1.91-1.11S737.37,1102.65,748.52,1046.16Z" transform="translate(-487.16 -881.27)"/><path class="cls-5" d="M660,970c-1.21-4.62-1.94-6.68-6.24-9.17-3.33-1.94-7.52-2.82-10.88-1.88h0a9.75,9.75,0,0,0-1,.35l0,0c-33.16,12.45-66.59,28.93-100,42.24-16.47,6.56-52.85,24.7-54.69,57.34V988.2c0-24.42,12.1-45.39,33.25-57.6l64.3-37.12c52.73,11.79,71.18,42.69,75.21,76.26Z" transform="translate(-487.16 -881.27)"/><g class="cls-22"><rect class="cls-23" y="12.21" width="172.79" height="165.44"/></g><path class="cls-6" d="M487.16,1023.56V988.2c0-24.42,12.1-45.39,33.25-57.6l64.3-37.12c24.74,5.53,41.93,15.27,53.63,27.52-145.81,31.67-151.18,102.56-151.18,102.56" transform="translate(-487.16 -881.27)"/><g class="cls-24"><rect class="cls-25" y="12.21" width="151.19" height="130.08"/></g><path class="cls-21" d="M660,970c-1.21-4.62-1.94-6.68-6.24-9.17a14.53,14.53,0,0,0-1.57-.81c-4.38-33.28-39-59.82-67.43-66.56,52.73,11.79,71.18,42.69,75.21,76.26Z" transform="translate(-487.16 -881.27)"/><path class="cls-26" d="M534.77,1004.63l0,0-2.6,1.23-.17.08-.77.39-.12,0-.79.4-.27.14-.66.34-.07,0-.79.41-.07,0-.64.34-.3.16-.12.06-.9.49-.07,0-1,.53h0l-1,.55,0,0-1,.6h0c-.68.39-1.36.8-2,1.22l-.15.09-.91.56-.08,0-1,.6-.13.09-.94.61-.06,0-1,.66-.08,0-1,.65-.13.08-.93.66-.09.06-1,.68-.07.06c-13.41,9.72-25.67,23.61-26.71,42.2v3.52a69.6,69.6,0,0,0,1.8,15.89,22.17,22.17,0,0,0,40.79,6l31-53.71L542.38,1020c-3.83-2.2-6.34-6.16-6.71-9.22-.52-4.34,1.89-6.87,5.38-8.91-1.89.76-4,1.67-6.28,2.73" transform="translate(-487.16 -881.27)"/><g class="cls-27"><rect class="cls-28" y="120.63" width="73.6" height="94.67"/></g><path class="cls-29" d="M519,1013.21c-15.25,9.77-30.68,24.75-31.86,45.71v3.52a69.6,69.6,0,0,0,1.8,15.89,22.17,22.17,0,0,0,40.79,6l5.43-9.42c-9.51-13.87-16.94-33.75-16.16-61.73" transform="translate(-487.16 -881.27)"/><g class="cls-30"><rect class="cls-31" y="131.94" width="48.03" height="83.36"/></g><path class="cls-21" d="M535.67,1010.81s-40.21,12.83-48.15,44.48c4.14-29.86,37.36-46.83,53.53-53.39-3.49,2-5.9,4.57-5.38,8.91" transform="translate(-487.16 -881.27)"/><path class="cls-32" d="M891,911.68a56.67,56.67,0,0,1,21.54,21.21,63,63,0,0,1,0,61.24,57.1,57.1,0,0,1-21.62,21.29,62.23,62.23,0,0,1-59.93,0,57.59,57.59,0,0,1-21.7-21.29,62.46,62.46,0,0,1,0-61.24A57,57,0,0,1,831,911.68a63,63,0,0,1,60,0Zm-46.83,32.91q-5.89,7-5.89,18.92,0,11.79,5.89,18.75t16.87,7q10.8,0,16.7-7t5.89-18.75q0-12-5.89-18.92t-16.7-7Q850.06,937.64,844.17,944.59Z" transform="translate(-487.16 -881.27)"/><path class="cls-32" d="M983.52,933.79a32,32,0,0,1,16.7-4.83v38.81H989.91q-10.32,0-15.15,3.6t-4.83,12.77V1022H933.58V929.61h36.35v17A44.1,44.1,0,0,1,983.52,933.79Z" transform="translate(-487.16 -881.27)"/><path class="cls-32" d="M1013.16,891.38q5.73-5.16,15.23-5.16,9.33,0,15.06,5.16a16.73,16.73,0,0,1,5.73,13,16.35,16.35,0,0,1-5.73,12.78q-5.73,5.07-15.06,5.07-9.5,0-15.23-5.07a16.35,16.35,0,0,1-5.73-12.78A16.73,16.73,0,0,1,1013.16,891.38Zm33.24,38.23V1022h-36.35V929.61Z" transform="translate(-487.16 -881.27)"/><path class="cls-32" d="M1151.36,982.18h-58.13q.49,6.87,3.11,9.41a9.48,9.48,0,0,0,6.88,2.54,8.83,8.83,0,0,0,8.51-5.4h38.49a40.17,40.17,0,0,1-8.27,17.6,44.52,44.52,0,0,1-15.89,12.28,48.84,48.84,0,0,1-21,4.5,51.14,51.14,0,0,1-24.48-5.73,40.67,40.67,0,0,1-16.7-16.46q-6-10.71-6-25.13t6-25.14a40.71,40.71,0,0,1,16.7-16.45,51.14,51.14,0,0,1,24.48-5.73,51.81,51.81,0,0,1,24.48,5.64,40.68,40.68,0,0,1,16.7,16.13q6,10.49,6,24.73A33.72,33.72,0,0,1,1151.36,982.18Zm-36-14.91c0-3.49-1-6.08-2.95-7.77A10.86,10.86,0,0,0,1105,957q-10,0-11.46,10.31Z" transform="translate(-487.16 -881.27)"/><path class="cls-32" d="M1253.13,939.6q8.92,10.65,8.93,28.82V1022h-36.19V973q0-6.56-3.52-10.4a12.14,12.14,0,0,0-9.42-3.85q-6.06,0-9.5,3.85T1200,973v49h-36.35V929.61H1200v14.08a32.92,32.92,0,0,1,11.39-10.64,33.39,33.39,0,0,1,16.94-4.09Q1244.21,929,1253.13,939.6Z" transform="translate(-487.16 -881.27)"/><path class="cls-32" d="M1335.25,991v31H1321.5q-38,0-38-37.83V959.91H1272v-30.3h11.47V907.34h36.35v22.27h15.06v30.3h-15.06V984.8c0,2.18.51,3.76,1.55,4.74s2.76,1.48,5.16,1.48Z" transform="translate(-487.16 -881.27)"/><path class="cls-32" d="M1437.76,982.18h-58.14q.5,6.87,3.12,9.41a9.44,9.44,0,0,0,6.87,2.54,8.85,8.85,0,0,0,8.52-5.4h38.48a40.06,40.06,0,0,1-8.27,17.6,44.49,44.49,0,0,1-15.88,12.28,48.92,48.92,0,0,1-21,4.5,51.14,51.14,0,0,1-24.48-5.73,40.73,40.73,0,0,1-16.7-16.46q-6-10.71-6-25.13t6-25.14a40.77,40.77,0,0,1,16.7-16.45,51.14,51.14,0,0,1,24.48-5.73,51.81,51.81,0,0,1,24.48,5.64,40.76,40.76,0,0,1,16.71,16.13q6,10.49,6,24.73A34.33,34.33,0,0,1,1437.76,982.18Zm-36-14.91q0-5.24-3-7.77a10.85,10.85,0,0,0-7.37-2.54q-10,0-11.46,10.31Z" transform="translate(-487.16 -881.27)"/><path class="cls-32" d="M1498.75,932.15a25.13,25.13,0,0,1,9.91,10.07V900.79H1545V1022h-36.35v-12.61a25.19,25.19,0,0,1-9.91,10.07,30.82,30.82,0,0,1-15.47,3.68,34.92,34.92,0,0,1-19.49-5.65,38,38,0,0,1-13.67-16.37q-5-10.73-5-25.3t5-25.3a38.14,38.14,0,0,1,13.67-16.38,35,35,0,0,1,19.49-5.64A30.72,30.72,0,0,1,1498.75,932.15Zm-13,32.18q-3.76,4.09-3.76,11.46t3.76,11.46a13.44,13.44,0,0,0,19.33,0q3.76-4.1,3.76-11.46t-3.76-11.46a13.44,13.44,0,0,0-19.33,0Z" transform="translate(-487.16 -881.27)"/><path class="cls-32" d="M827.05,1048.91l-27.42,74.94h24.66l3.71-11.32h25l3.7,11.32h24.78l-27.32-74.94Zm6.67,45.94,6.77-20.85,6.78,20.85Z" transform="translate(-487.16 -881.27)"/><path class="cls-32" d="M924.75,1072.3a16.19,16.19,0,0,0-6.46-6.51,20.28,20.28,0,0,0-10.06-2.38,22.62,22.62,0,0,0-12.59,3.65,24.69,24.69,0,0,0-8.84,10.59,43,43,0,0,0,0,32.71,24.61,24.61,0,0,0,8.84,10.58,22.54,22.54,0,0,0,12.59,3.65,20.18,20.18,0,0,0,10.06-2.38,16.12,16.12,0,0,0,6.46-6.51v7.1q0,5.82-2.33,7.93a9.26,9.26,0,0,1-6.46,2.12q-6.66,0-7.62-4.66H885.26q1.17,11.54,9.58,18.26t22.81,6.72q10.7,0,17.52-4.12a24.27,24.27,0,0,0,9.9-11,37,37,0,0,0,3.07-15.24v-58.65H924.75Zm-2.44,29.11a8.68,8.68,0,0,1-12.49,0q-2.43-2.64-2.43-7.41t2.43-7.41a8.71,8.71,0,0,1,12.49,0q2.45,2.65,2.44,7.41T922.31,1101.41Z" transform="translate(-487.16 -881.27)"/><path class="cls-32" d="M1001.86,1067.06a33.51,33.51,0,0,0-15.83-3.65,33.05,33.05,0,0,0-15.82,3.71,26.39,26.39,0,0,0-10.8,10.63,36.13,36.13,0,0,0,0,32.5,26.41,26.41,0,0,0,10.8,10.64,33,33,0,0,0,15.82,3.7,31.47,31.47,0,0,0,13.61-2.91,28.62,28.62,0,0,0,10.26-7.94,25.85,25.85,0,0,0,5.35-11.37H990.38a5.73,5.73,0,0,1-5.51,3.49,6.1,6.1,0,0,1-4.44-1.64c-1.13-1.1-1.8-3.12-2-6.09H1016a22.06,22.06,0,0,0,.53-4.66,31.78,31.78,0,0,0-3.86-16A26.4,26.4,0,0,0,1001.86,1067.06Zm-23.23,21.44q.95-6.68,7.4-6.67a7.07,7.07,0,0,1,4.77,1.64,6.29,6.29,0,0,1,1.9,5Z" transform="translate(-487.16 -881.27)"/><path class="cls-32" d="M1065.74,1063.73a21.55,21.55,0,0,0-11,2.65,21.08,21.08,0,0,0-7.36,6.88v-9.11h-23.5v59.7h23.5V1092.2a9.73,9.73,0,0,1,2.22-6.72,8.75,8.75,0,0,1,12.23,0,9.61,9.61,0,0,1,2.27,6.72v31.65h23.4v-34.61q0-11.74-5.77-18.63T1065.74,1063.73Z" transform="translate(-487.16 -881.27)"/><path class="cls-32" d="M1124.49,1083.52c2.68,0,4.48,1.56,5.4,4.66h24.87q-2.12-11.64-10.11-18.21t-19.63-6.56a33.06,33.06,0,0,0-15.83,3.71,26.3,26.3,0,0,0-10.79,10.63,36.05,36.05,0,0,0,0,32.5,26.33,26.33,0,0,0,10.79,10.64,33.06,33.06,0,0,0,15.83,3.7q11.64,0,19.63-6.56t10.11-18.21h-24.87q-1.38,4.67-5.4,4.66a5.05,5.05,0,0,1-4.5-2.64c-1.1-1.77-1.64-4.38-1.64-7.84s.54-6.07,1.64-7.83A5.06,5.06,0,0,1,1124.49,1083.52Z" transform="translate(-487.16 -881.27)"/><polygon class="cls-32" points="716.51 182.88 706.03 213.16 694.81 182.88 668.66 182.88 693.54 239.62 678.51 271.16 704.23 271.16 742.44 182.88 716.51 182.88"/></svg>