<svg version="1.2" xmlns="http://www.w3.org/2000/svg" viewBox="0 0 1143 357" width="1143" height="357">
	<title>Oriented Agency Logo-ai</title>
	<defs>
		<clipPath clipPathUnits="userSpaceOnUse" id="cp1">
			<path d="m307.77 195.5v21.94c0 24.42-12.11 45.39-33.26 57.6l-64.29 37.12c-7.05 4.07-14.43 6.78-21.93 8.14-8.69 1.57-16.99-1.83-22.08-9.06-5.09-7.23-5.49-16.19-1.07-23.84l32.72-56.66 18.23 10.52q1.7 0.98 3.44 1.49l0.02 0.01-0.02-0.01c34.65 14.8 88.24 3.27 88.24-47.25z"/>
		</clipPath>
		<linearGradient id="g1" x1="158.7" y1="321.9" x2="158.7" y2="195.5" gradientUnits="userSpaceOnUse">
			<stop offset="0" stop-color="#df6d24"/>
			<stop offset="1" stop-color="#f4e448"/>
		</linearGradient>
		<linearGradient id="g2" x1="160.1" y1="319.5" x2="160.1" y2="195.5" gradientUnits="userSpaceOnUse">
			<stop offset="0" stop-color="#df6d24"/>
			<stop offset="1" stop-color="#f4e448"/>
		</linearGradient>
		<clipPath clipPathUnits="userSpaceOnUse" id="cp2">
			<path d="m307.77 195.5v21.94c0 24.42-12.11 45.39-33.26 57.6l-64.29 37.12c-7.05 4.07-14.43 6.78-21.93 8.14-8.63 1.56-16.87-1.78-21.97-8.9 25.17-6.88 57.11-23.44 77.88-62.85 30.84 2.1 63.57-13.57 63.57-53.05z"/>
		</clipPath>
		<linearGradient id="g3" x1="20.8" y1="397.3" x2="264.8" y2="53.1" gradientUnits="userSpaceOnUse">
			<stop offset="0" stop-color="#fb7b25"/>
			<stop offset="1" stop-color="#f4e448"/>
		</linearGradient>
		<linearGradient id="g4" x1="112.3" y1="383.9" x2="340.5" y2="61.9" gradientUnits="userSpaceOnUse">
			<stop offset="0" stop-color="#fb7b25"/>
			<stop offset="1" stop-color="#f4e448"/>
		</linearGradient>
		<clipPath clipPathUnits="userSpaceOnUse" id="cp3">
			<path d="m210.22 48.48l64.29 37.12c21.15 12.21 33.26 33.18 33.26 57.6v52.3c0 50.52-53.59 62.05-88.24 47.25 2.76 0.81 5.51 0.73 7.9-0.29 3.38-1.45 5.07-4.37 4.63-8.03l-13.14-109.69c-4.03-33.57-22.48-64.47-75.21-76.26 21.15-12.21 45.36-12.21 66.51 0z"/>
		</clipPath>
		<linearGradient id="g5" x1="143.7" y1="34.3" x2="307.8" y2="34.3" gradientUnits="userSpaceOnUse">
			<stop offset="0" stop-color="#18646b"/>
			<stop offset="1" stop-color="#41cdf5"/>
		</linearGradient>
		<linearGradient id="g6" x1="143.7" y1="37.4" x2="307.8" y2="37.4" gradientUnits="userSpaceOnUse">
			<stop offset="0" stop-color="#18646b"/>
			<stop offset="1" stop-color="#41cdf5"/>
		</linearGradient>
		<clipPath clipPathUnits="userSpaceOnUse" id="cp4">
			<path d="m210.22 48.48l64.29 37.12c21.15 12.21 33.26 33.18 33.26 57.6v52.3c0 25.94-14.14 41.6-32.58 48.7v-0.01q24.8-180.29-110.9-203.59c15.43-3.13 31.4-0.51 45.93 7.88z"/>
		</clipPath>
		<linearGradient id="g7" x1="266.9" y1="454.6" x2="60.3" y2="39.9" gradientUnits="userSpaceOnUse">
			<stop offset="0" stop-color="#196555"/>
			<stop offset="1" stop-color="#41cdf5"/>
		</linearGradient>
		<linearGradient id="g8" x1="314.2" y1="346.7" x2="139.1" y2="-4.7" gradientUnits="userSpaceOnUse">
			<stop offset="0" stop-color="#196555"/>
			<stop offset="1" stop-color="#41cdf5"/>
		</linearGradient>
		<clipPath clipPathUnits="userSpaceOnUse" id="cp5">
			<path d="m218.95 125.02c-1.21-4.62-1.94-6.68-6.24-9.17-3.33-1.94-7.52-2.82-10.88-1.88q-0.49 0.15-0.95 0.35l-0.05 0.02c-33.16 12.45-66.59 28.93-99.98 42.24-16.47 6.56-52.85 24.7-54.69 57.34v-70.72c0-24.42 12.1-45.39 33.25-57.6l64.3-37.12c52.73 11.79 71.18 42.69 75.21 76.26z"/>
		</clipPath>
		<linearGradient id="g9" x1="-66.6" y1="94" x2="212.4" y2="-23.9" gradientUnits="userSpaceOnUse">
			<stop offset="0" stop-color="#32c3da"/>
			<stop offset="1" stop-color="#7dd09c"/>
		</linearGradient>
		<linearGradient id="g10" x1="46.2" y1="46.5" x2="218.9" y2="46.5" gradientUnits="userSpaceOnUse">
			<stop offset="0" stop-color="#32c3da"/>
			<stop offset="1" stop-color="#7dd09c"/>
		</linearGradient>
		<clipPath clipPathUnits="userSpaceOnUse" id="cp6">
			<path d="m46.16 178.56v-35.36c0-24.42 12.1-45.39 33.25-57.6l64.3-37.12c24.74 5.53 41.93 15.27 53.63 27.52q-145.81 31.67-151.18 102.56z"/>
		</clipPath>
		<linearGradient id="g11" x1="-28.8" y1="78" x2="250.2" y2="-39.9" gradientUnits="userSpaceOnUse">
			<stop offset="0" stop-color="#49cee6"/>
			<stop offset="1" stop-color="#7dd09c"/>
		</linearGradient>
		<linearGradient id="g12" x1="-28.7" y1="119.1" x2="194.9" y2="24.7" gradientUnits="userSpaceOnUse">
			<stop offset="0" stop-color="#49cee6"/>
			<stop offset="1" stop-color="#7dd09c"/>
		</linearGradient>
		<clipPath clipPathUnits="userSpaceOnUse" id="cp7">
			<path d="m100.05 156.9c-3.49 2.04-5.9 4.57-5.38 8.91 0.37 3.06 2.88 7.02 6.71 9.22l18.38 10.62-31.01 53.71c-4.65 8.04-13.27 12.21-22.45 10.85-9.18-1.36-16.23-7.85-18.34-16.88-1.19-5.08-1.8-10.4-1.8-15.89v-3.52c1.04-18.59 13.3-32.48 26.71-42.2l0.07-0.06q0.48-0.34 0.96-0.68l0.09-0.06q0.47-0.33 0.93-0.66l0.13-0.08q0.47-0.33 0.95-0.65l0.08-0.05q0.49-0.33 0.98-0.66l0.06-0.03q0.47-0.31 0.94-0.61l0.13-0.09q0.48-0.3 0.96-0.6l0.08-0.05q0.46-0.28 0.91-0.56l0.15-0.09q1.02-0.63 2.04-1.22l0.02-0.01q0.52-0.31 1.04-0.6l0.03-0.02q0.49-0.28 0.98-0.55l0.02-0.01 0.96-0.53 0.07-0.04q0.45-0.25 0.9-0.49l0.12-0.06 0.3-0.16 0.64-0.34 0.07-0.04 0.79-0.41 0.07-0.03 0.66-0.34 0.27-0.14 0.79-0.4 0.12-0.05 0.77-0.39 0.17-0.08q1.33-0.65 2.6-1.23l0.05-0.02c2.27-1.06 4.39-1.97 6.28-2.73z"/>
		</clipPath>
		<linearGradient id="g13" x1="239.1" y1="204.5" x2="24.8" y2="292.9" gradientUnits="userSpaceOnUse">
			<stop offset="0" stop-color="#2898d4"/>
			<stop offset="1" stop-color="#93cc99"/>
		</linearGradient>
		<linearGradient id="g14" x1="46.2" y1="154.9" x2="119.8" y2="154.9" gradientUnits="userSpaceOnUse">
			<stop offset="0" stop-color="#2898d4"/>
			<stop offset="1" stop-color="#93cc99"/>
		</linearGradient>
		<clipPath clipPathUnits="userSpaceOnUse" id="cp8">
			<path d="m94.18 229.94l-5.43 9.42c-4.65 8.04-13.27 12.21-22.45 10.85-9.18-1.36-16.23-7.85-18.34-16.88-1.19-5.08-1.8-10.4-1.8-15.89v-3.52c1.18-20.96 16.61-35.94 31.86-45.71-0.78 27.98 6.65 47.86 16.16 61.73z"/>
		</clipPath>
		<linearGradient id="g15" x1="44.2" y1="341.1" x2="44.2" y2="87.5" gradientUnits="userSpaceOnUse">
			<stop offset="0" stop-color="#2898d4"/>
			<stop offset=".5" stop-color="#5ec3a9"/>
			<stop offset="1" stop-color="#7dd09c"/>
		</linearGradient>
		<linearGradient id="g16" x1="44.2" y1="321.2" x2="44.2" y2="140.5" gradientUnits="userSpaceOnUse">
			<stop offset="0" stop-color="#2898d4"/>
			<stop offset=".5" stop-color="#5ec3a9"/>
			<stop offset="1" stop-color="#7dd09c"/>
		</linearGradient>
	</defs>
	<style>
		.s0 { fill: url(#g1) } 
		.s1 { fill: url(#g2) } 
		.s2 { fill: url(#g3) } 
		.s3 { fill: url(#g4) } 
		.s4 { fill: url(#g5) } 
		.s5 { fill: url(#g6) } 
		.s6 { fill: url(#g7) } 
		.s7 { fill: url(#g8) } 
		.s8 { fill: #296358 } 
		.s9 { fill: url(#g9) } 
		.s10 { fill: url(#g10) } 
		.s11 { fill: url(#g11) } 
		.s12 { fill: url(#g12) } 
		.s13 { fill: url(#g13) } 
		.s14 { fill: url(#g14) } 
		.s15 { fill: url(#g15) } 
		.s16 { fill: url(#g16) } 
		.s17 { fill: #141414 } 
	</style>
	<g id="Layer 1">
		<g id="&lt;Clip Group&gt;" clip-path="url(#cp1)">
			<path id="&lt;Path&gt;" class="s0" d="m160.7 195.5h147.1v126.4h-147.1z"/>
			<path id="&lt;Path&gt;" class="s1" d="m307.8 195.5v21.9c0 24.5-12.1 45.4-33.3 57.6l-64.3 37.2c-7 4-14.4 6.7-21.9 8.1-8.7 1.6-17-1.8-22.1-9.1-5.1-7.2-5.5-16.1-1.1-23.8l32.8-56.7 18.2 10.6q1.7 0.9 3.4 1.5c34.7 14.8 88.3 3.2 88.3-47.3z"/>
		</g>
		<g id="&lt;Clip Group&gt;" clip-path="url(#cp2)">
			<path id="&lt;Path&gt;" class="s2" d="m166.3 195.5h141.5v126.4h-141.5z"/>
			<path id="&lt;Path&gt;" class="s3" d="m307.8 195.5v21.9c0 24.5-12.1 45.4-33.3 57.6l-64.3 37.2c-7 4-14.4 6.7-21.9 8.1-8.6 1.6-16.9-1.8-22-8.9 25.2-6.9 57.1-23.4 77.9-62.8 30.8 2 63.6-13.6 63.6-53.1z"/>
		</g>
		<g id="&lt;Clip Group&gt;" clip-path="url(#cp3)">
			<path id="&lt;Path&gt;" class="s4" d="m143.7 36.3h164.1v221.3h-164.1z"/>
			<path id="&lt;Path&gt;" class="s5" d="m210.2 48.5l64.3 37.1c21.2 12.2 33.3 33.2 33.3 57.6v52.3c0 50.5-53.6 62.1-88.3 47.3 2.8 0.8 5.5 0.7 7.9-0.3 3.4-1.5 5.1-4.4 4.7-8.1l-13.2-109.7c-4-33.5-22.5-64.4-75.2-76.2 21.2-12.2 45.4-12.2 66.5 0z"/>
		</g>
		<g id="&lt;Clip Group&gt;" clip-path="url(#cp4)">
			<path id="&lt;Path&gt;" class="s6" d="m164.3 37.5h143.5v206.7h-143.5z"/>
			<path id="&lt;Path&gt;" class="s7" d="m210.2 48.5l64.3 37.1c21.2 12.2 33.3 33.2 33.3 57.6v52.3c0 25.9-14.2 41.6-32.6 48.7q24.8-180.3-110.9-203.6c15.4-3.1 31.4-0.5 45.9 7.9z"/>
		</g>
		<path id="&lt;Compound Path&gt;" class="s8" d="m212.6 239.2zm16.7 2.1q-0.8 0.7-1.9 1.2c-2.4 1-5.1 1.1-7.9 0.2 33.3 14.3 84.1 4.2 88-41.5q-11.1 56.4-78.2 40.1z"/>
		<g id="&lt;Clip Group&gt;" clip-path="url(#cp5)">
			<path id="&lt;Path&gt;" class="s9" d="m46.2 48.5h172.7v165.4h-172.7z"/>
			<path id="&lt;Path&gt;" class="s10" d="m218.9 125c-1.2-4.6-1.9-6.7-6.2-9.2-3.3-1.9-7.5-2.8-10.9-1.8q-0.5 0.1-0.9 0.3h-0.1c-33.1 12.5-66.6 29-99.9 42.3-16.5 6.5-52.9 24.7-54.7 57.3v-70.7c0-24.4 12.1-45.4 33.2-57.6l64.3-37.1c52.7 11.8 71.2 42.7 75.2 76.2z"/>
		</g>
		<g id="&lt;Clip Group&gt;" clip-path="url(#cp6)">
			<path id="&lt;Path&gt;" class="s11" d="m46.2 48.5h151.1v130.1h-151.1z"/>
			<path id="&lt;Path&gt;" class="s12" d="m46.2 178.6v-35.4c0-24.4 12.1-45.4 33.2-57.6l64.3-37.1c24.8 5.5 41.9 15.3 53.6 27.5q-145.8 31.7-151.1 102.6z"/>
		</g>
		<path id="&lt;Path&gt;" class="s8" d="m218.9 124.7c-4-33.5-22.5-64.4-75.2-76.2 28.5 6.7 63.1 33.3 67.4 66.5q0.9 0.4 1.6 0.8c4.3 2.5 5 4.6 6.2 9.2z"/>
		<g id="&lt;Clip Group&gt;" clip-path="url(#cp7)">
			<path id="&lt;Path&gt;" class="s13" d="m46.2 156.9h73.6v94.7h-73.6z"/>
			<path id="&lt;Path&gt;" class="s14" d="m100.1 156.9c-3.5 2-5.9 4.6-5.4 8.9 0.3 3.1 2.9 7 6.7 9.2l18.4 10.6-31.1 53.8c-4.6 8-13.2 12.2-22.4 10.8-9.2-1.4-16.2-7.8-18.3-16.9-1.2-5.1-1.8-10.4-1.8-15.9v-3.5c1-18.6 13.3-32.5 26.7-42.2q0.5-0.4 1-0.7l0.1-0.1q0.5-0.3 0.9-0.6l0.1-0.1q0.5-0.3 1-0.7h0.1q0.5-0.4 1-0.7 0.5-0.3 1-0.6l0.1-0.1q0.5-0.3 0.9-0.6l0.1-0.1q0.5-0.2 0.9-0.5l0.2-0.1q1-0.6 2-1.2h0.1q0.5-0.3 1-0.6v-0.1q0.5-0.2 1-0.5l1-0.6q0.5-0.2 1-0.5h0.1l0.3-0.2 0.6-0.3 0.1-0.1 0.8-0.4 0.7-0.4 0.3-0.1 0.8-0.4 0.1-0.1 0.8-0.3 0.1-0.1q1.4-0.7 2.6-1.3h0.1c2.2-1 4.4-1.9 6.3-2.7z"/>
		</g>
		<g id="&lt;Clip Group&gt;" clip-path="url(#cp8)">
			<path id="&lt;Path&gt;" class="s15" d="m46.2 168.2h48v83.4h-48z"/>
			<path id="&lt;Path&gt;" class="s16" d="m94.2 229.9l-5.5 9.5c-4.6 8-13.2 12.2-22.4 10.8-9.2-1.4-16.2-7.8-18.3-16.9-1.2-5.1-1.8-10.4-1.8-15.9v-3.5c1.1-20.9 16.6-35.9 31.8-45.7-0.8 28 6.7 47.9 16.2 61.7z"/>
		</g>
		<path id="&lt;Path&gt;" class="s8" d="m94.7 165.8q-40.2 12.8-48.2 44.5c4.2-29.9 37.4-46.8 53.6-53.4-3.5 2-5.9 4.6-5.4 8.9z"/>
		<g id="&lt;Group&gt;">
			<path id="&lt;Compound Path&gt;" fill-rule="evenodd" class="s17" d="m453 66.7q13.6 7.6 21.5 21.2 8 13.6 8 30.6 0 17-8 30.6-7.9 13.6-21.6 21.3-13.7 7.7-29.9 7.7-16.3 0-30-7.7-13.7-7.7-21.7-21.3-8-13.6-8-30.6 0-17 8-30.6 8-13.6 21.7-21.2 13.7-7.6 30-7.6 16.4 0 30 7.6zm-46.8 32.9q-5.9 7-5.9 18.9 0 11.8 5.9 18.8 5.9 6.9 16.8 6.9 10.8 0 16.7-6.9 5.9-7 5.9-18.8 0-11.9-5.9-18.9-5.9-7-16.7-7-10.9 0-16.8 7z"/>
			<path id="&lt;Compound Path&gt;" class="s17" d="m545.5 88.8q8-4.8 16.7-4.8v38.8h-10.3q-10.3 0-15.1 3.6-4.9 3.6-4.9 12.7v37.9h-36.3v-92.4h36.3v17q5.6-8 13.6-12.8z"/>
			<path id="&lt;Compound Path&gt;" class="s17" d="m575.2 46.4q5.7-5.2 15.2-5.2 9.3 0 15.1 5.2 5.7 5.1 5.7 13 0 7.7-5.7 12.8-5.8 5-15.1 5-9.5 0-15.2-5-5.8-5.1-5.8-12.8 0-7.9 5.8-13zm33.2 38.2v92.4h-36.4v-92.4z"/>
			<path id="&lt;Compound Path&gt;" fill-rule="evenodd" class="s17" d="m713.4 137.2h-58.2q0.5 6.9 3.1 9.4 2.7 2.5 6.9 2.5 5.9 0 8.5-5.4h38.5q-2 9.9-8.3 17.6-6.3 7.8-15.8 12.3-9.6 4.5-21.1 4.5-13.7 0-24.5-5.7-10.7-5.7-16.7-16.5-5.9-10.7-5.9-25.1 0-14.4 5.9-25.1 6-10.8 16.7-16.5 10.8-5.7 24.5-5.7 13.8 0 24.5 5.6 10.7 5.7 16.7 16.1 6 10.5 6 24.8 0 3.4-0.8 7.2zm-36.1-14.9q0-5.3-2.9-7.8-3-2.5-7.4-2.5-10 0-11.4 10.3z"/>
			<path id="&lt;Compound Path&gt;" class="s17" d="m815.1 94.6q9 10.6 9 28.8v53.6h-36.2v-49q0-6.5-3.6-10.4-3.5-3.8-9.4-3.8-6 0-9.5 3.8-3.4 3.9-3.4 10.4v49h-36.4v-92.4h36.4v14.1q4.3-6.6 11.4-10.6 7.1-4.1 16.9-4.1 15.9 0 24.8 10.6z"/>
			<path id="&lt;Compound Path&gt;" class="s17" d="m897.2 146v31h-13.7q-38 0-38-37.9v-24.2h-11.5v-30.3h11.5v-22.3h36.4v22.3h15v30.3h-15v24.9q0 3.3 1.5 4.7 1.6 1.5 5.2 1.5z"/>
			<path id="&lt;Compound Path&gt;" fill-rule="evenodd" class="s17" d="m999.8 137.2h-58.2q0.5 6.9 3.1 9.4 2.7 2.5 6.9 2.5 5.9 0 8.5-5.4h38.5q-2 9.9-8.3 17.6-6.3 7.8-15.8 12.3-9.6 4.5-21.1 4.5-13.7 0-24.5-5.7-10.7-5.7-16.7-16.5-5.9-10.7-5.9-25.1 0-14.4 5.9-25.1 6-10.8 16.7-16.5 10.8-5.7 24.5-5.7 13.8 0 24.5 5.6 10.7 5.7 16.7 16.1 6 10.5 6 24.8 0 3.4-0.8 7.2zm-36.1-14.9q0-5.3-2.9-7.8-3-2.5-7.4-2.5-10 0-11.4 10.3z"/>
			<path id="&lt;Compound Path&gt;" fill-rule="evenodd" class="s17" d="m1060.8 87.1q6.4 3.7 9.9 10.1v-41.4h36.3v121.2h-36.3v-12.6q-3.5 6.3-9.9 10-6.5 3.7-15.5 3.7-10.8 0-19.5-5.6-8.7-5.7-13.7-16.4-5-10.7-5-25.3 0-14.6 5-25.3 5-10.7 13.7-16.4 8.7-5.6 19.5-5.6 9 0 15.5 3.6zm-13.1 32.2q-3.7 4.1-3.7 11.5 0 7.4 3.7 11.5 3.8 4 9.7 4 5.9 0 9.7-4 3.7-4.1 3.7-11.5 0-7.4-3.7-11.5-3.8-4.1-9.7-4.1-5.9 0-9.7 4.1z"/>
		</g>
		<g id="&lt;Group&gt;">
			<path id="&lt;Compound Path&gt;" fill-rule="evenodd" class="s17" d="m416.1 203.9l27.4 75h-24.8l-3.7-11.4h-25l-3.7 11.4h-24.7l27.4-75zm-6.8 45.9l-6.8-20.8-6.8 20.8z"/>
			<path id="&lt;Compound Path&gt;" fill-rule="evenodd" class="s17" d="m486.7 219.2h23.4v58.6q0 8.4-3 15.2-3.1 6.9-9.9 11-6.9 4.2-17.5 4.2-14.4 0-22.9-6.7-8.4-6.8-9.5-18.3h23q1 4.7 7.7 4.7 4.1 0 6.4-2.2 2.3-2.1 2.3-7.9v-7.1q-2.2 4.1-6.4 6.5-4.2 2.4-10.1 2.4-7 0-12.6-3.7-5.6-3.6-8.8-10.5-3.2-7-3.2-16.4 0-9.4 3.2-16.4 3.2-6.9 8.8-10.5 5.6-3.7 12.6-3.7 5.9 0 10.1 2.4 4.2 2.4 6.4 6.5zm0 29.9q0-4.8-2.4-7.5-2.4-2.6-6.2-2.6-3.8 0-6.3 2.6-2.4 2.7-2.4 7.5 0 4.7 2.4 7.4 2.5 2.6 6.3 2.6 3.8 0 6.2-2.6 2.4-2.7 2.4-7.4z"/>
			<path id="&lt;Compound Path&gt;" fill-rule="evenodd" class="s17" d="m574.7 232.5q3.8 6.8 3.8 16 0 2.2-0.5 4.6h-37.6q0.3 4.5 2 6.1 1.7 1.7 4.5 1.7 3.8 0 5.5-3.5h24.9q-1.3 6.3-5.4 11.3-4.1 5.1-10.3 8-6.2 2.9-13.6 2.9-8.9 0-15.8-3.7-6.9-3.7-10.8-10.6-3.9-7-3.9-16.3 0-9.3 3.9-16.2 3.9-7 10.8-10.7 6.9-3.7 15.8-3.7 8.9 0 15.9 3.7 6.9 3.6 10.8 10.4zm-20 11q0-3.4-1.9-5-1.9-1.7-4.8-1.7-6.4 0-7.4 6.7z"/>
			<path id="&lt;Path&gt;" class="s17" d="m643.8 225.6q5.7 6.9 5.7 18.6v34.7h-23.3v-31.7q0-4.2-2.3-6.7-2.3-2.5-6.1-2.5-3.9 0-6.1 2.5-2.3 2.5-2.3 6.7v31.7h-23.5v-59.7h23.5v9.1q2.8-4.3 7.4-6.9 4.6-2.7 10.9-2.7 10.3 0 16.1 6.9z"/>
			<path id="&lt;Path&gt;" class="s17" d="m682 241.2q-1.7 2.6-1.7 7.8 0 5.2 1.7 7.8 1.6 2.7 4.5 2.7 4 0 5.4-4.7h24.9q-2.2 11.7-10.1 18.2-8 6.6-19.7 6.6-8.9 0-15.8-3.7-6.9-3.7-10.8-10.6-3.9-7-3.9-16.3 0-9.3 3.9-16.2 3.9-7 10.8-10.7 6.9-3.7 15.8-3.7 11.7 0 19.7 6.6 7.9 6.5 10.1 18.2h-24.9q-1.4-4.7-5.4-4.7-2.9 0-4.5 2.7z"/>
			<path id="&lt;Path&gt;" class="s17" d="m791.6 219.2l-38.2 88.2h-25.7l15-31.5-24.9-56.7h26.2l11.2 30.2 10.5-30.2z"/>
		</g>
	</g>
</svg>