<?xml version="1.0" encoding="utf-8"?>
<!-- Generator: Adobe Illustrator 23.0.3, SVG Export Plug-In . SVG Version: 6.00 Build 0)  -->
<svg version="1.1" id="Layer_1" xmlns="http://www.w3.org/2000/svg" xmlns:xlink="http://www.w3.org/1999/xlink" x="0px" y="0px"
	 viewBox="0 0 3000 1080" style="enable-background:new 0 0 3000 1080;" xml:space="preserve">
<style type="text/css">
	.st0{fill:#FEFEFE;}
	.st1{fill:#5DDFD7;}
</style>
<g>
	<g>
		<path class="st0" d="M1500.77,556c-40.33,0-80.67-0.04-121,0.08c-3.07,0.01-3.97-0.61-3.86-3.81c0.27-7.99,0.15-16,0.04-24
			c-0.02-1.82,0.33-2.62,2.28-2.3c0.97,0.16,2,0.03,3,0.03c80.17,0,160.33,0.03,240.5-0.09c3.54-0.01,4.57,0.62,4.38,4.33
			c-0.37,7.31-0.28,14.67-0.03,21.99c0.11,3.08-0.63,3.87-3.81,3.86C1581.77,555.96,1541.27,556,1500.77,556z M1426.78,534.16
			c-15.14-0.59-27.33,0.85-39.54,1.9c-1.75,0.15-4.13,0.32-4.03,2.71c0.11,2.42,2.38,2.31,4.24,2.31c9.16-0.04,18.33,0.23,27.48-0.2
			c18.03-0.86,35.96-2.42,54.11-1.13c16.66,1.19,33.43,1.44,50.16,2.08c12.26,0.47,24.53,1.25,36.82,1.44
			c6.57,0.1,13.27,0.11,19.83,0.89c12.61,1.51,25.37,1.56,37.9,3.85c1.85,0.34,4.68,0.69,4.81-1.93c0.1-2-2.36-2.82-4.45-3.09
			c-5.06-0.64-10.12-1.33-15.18-2c-1.08-0.14-2.64,0.37-2.8-1.28c-0.45-4.61-4.31-4.33-7.14-4.54c-6.61-0.49-13.26-0.85-19.86-1
			c-26.29-0.6-52.59,0.06-78.9-0.93C1468.15,532.41,1446.02,532.72,1426.78,534.16z"/>
		<path class="st1" d="M1426.78,534.16c19.24-1.43,41.37-1.75,63.46-0.92c26.3,0.99,52.61,0.32,78.9,0.93
			c6.6,0.15,13.26,0.51,19.86,1c2.82,0.21,6.68-0.07,7.14,4.54c0.16,1.65,1.73,1.14,2.8,1.28c5.06,0.67,10.12,1.36,15.18,2
			c2.09,0.26,4.55,1.08,4.45,3.09c-0.13,2.63-2.96,2.27-4.81,1.93c-12.53-2.29-25.29-2.34-37.9-3.85
			c-6.56-0.79-13.26-0.79-19.83-0.89c-12.29-0.19-24.56-0.97-36.82-1.44c-16.72-0.64-33.49-0.89-50.16-2.08
			c-18.16-1.3-36.09,0.27-54.11,1.13c-9.14,0.43-18.32,0.16-27.48,0.2c-1.86,0.01-4.13,0.11-4.24-2.31
			c-0.1-2.39,2.28-2.56,4.03-2.71C1399.45,535.01,1411.64,533.57,1426.78,534.16z"/>
	</g>
</g>
</svg>
