<svg width="83" height="20" viewBox="0 0 83 20" xmlns="http://www.w3.org/2000/svg"><title>factorial 16.43.38</title><path d="M28.12 15.532v-4h4.442v-1.89H28.12V6.988h4.8V5.08h-6.963v10.452h2.162zm9.623-4.323c-.307-.224-1.04-.445-1.702-.445-1.666 0-2.943.987-2.943 2.434 0 1.582 1.277 2.467 2.808 2.467.835 0 1.583-.29 1.84-.545v.41h2.024V10.68c0-1.854-1.175-2.927-3.27-2.927-1.003 0-1.99.29-2.535.63v1.82c.596-.39 1.31-.612 2.077-.612 1.073 0 1.703.46 1.703 1.194v.426h-.002zm0 2.244c-.187.41-.75.664-1.345.664-.664 0-1.345-.273-1.345-.937 0-.646.68-.935 1.345-.935.596 0 1.158.255 1.345.664v.544zm3.326-1.72c0 2.435 1.683 3.967 3.844 3.967.766 0 1.515-.17 2.06-.595V13.2c-.51.443-1.123.68-1.804.68-1.123 0-2.008-.8-2.008-2.144 0-1.362.885-2.145 2.01-2.145.68 0 1.292.224 1.803.683V8.35c-.545-.427-1.294-.597-2.06-.597-2.16 0-3.846 1.532-3.846 3.983v-.002zm10.387-2.11h1.617v-1.7h-1.617v-2.06h-2.11v2.06H47.9v1.703h1.448v5.906h2.11V9.624zm9.564 2.11c0-2.348-1.514-3.982-3.726-3.982-2.213 0-3.728 1.634-3.728 3.983 0 2.332 1.515 3.966 3.728 3.966 2.212 0 3.727-1.633 3.727-3.965zm-2.092 0c0 1.26-.58 2.18-1.635 2.18-1.056 0-1.634-.92-1.634-2.18 0-1.275.58-2.195 1.634-2.195 1.055 0 1.634.92 1.634 2.195zM67 7.888c-.12-.07-.44-.137-.8-.137-.75 0-1.377.376-1.7.92v-.75h-2.11v7.61h2.11v-4.715c.153-.698.732-1.072 1.447-1.072.39 0 .766.085 1.055.255v-2.11zm3.285.033h-2.11v7.61h2.11V7.92zm.187-2.194c0-.698-.58-1.21-1.243-1.21-.68 0-1.26.512-1.26 1.21 0 .715.58 1.208 1.26 1.208.664 0 1.243-.493 1.243-1.208zm5.65 5.48c-.307-.22-1.04-.442-1.703-.442-1.668 0-2.945.987-2.945 2.434 0 1.583 1.277 2.468 2.81 2.468.833 0 1.582-.29 1.837-.545v.41h2.025v-4.85c0-1.854-1.174-2.927-3.268-2.927-1.005 0-1.99.29-2.537.63v1.82c.596-.39 1.31-.612 2.077-.612 1.073 0 1.703.46 1.703 1.194v.426-.004zm0 2.247c-.188.41-.75.664-1.346.664-.664 0-1.344-.273-1.344-.937 0-.647.68-.936 1.344-.936.596 0 1.158.255 1.345.664v.545h.002zm5.912-8.987V15.53h-2.11V4.468h2.11v-.002zm-62.842 11.61l-.165.264-.11-.098-.3-.243-.13-.1-.425-.292-.14-.088-.44-.252.108-.27.105-.316.138-.526.067-.33.084-.554.06-.553.046-.775.023-1.01v-1.87l-.023-1.01-.047-.775-.06-.554-.083-.553-.067-.33-.138-.527L17.59 5l-.127-.317-.146-.306-.17-.298-.213-.31-.093-.117-.196-.22-.235-.22-.187-.153-.3-.205-.3-.172-.305-.146L15 2.41l-.316-.105-.527-.138-.33-.067-.552-.084-.554-.06-.773-.046-1.01-.023H9.064l-1.01.023-.774.047-.555.06-.552.083-.33.067-.527.138L5 2.41l-.317.127-.306.146-.298.172-.31.21-.117.094-.22.197-.22.234-.153.187-.206.3-.17.3-.147.305L2.41 5l-.105.316-.138.527-.067.33-.084.552-.06.554-.046.773-.023 1.01v1.873l.023 1.01.047.774.06.555.083.552.067.33.138.527.105.316.093.277-.426.245-.14.087-.425.292-.114.084-.213.17-.092.078-.146.132-.14-.292-.17-.426-.142-.428-.167-.64-.086-.425-.098-.64-.068-.64-.05-.852L0 10.96V9.04l.025-1.065.05-.853.07-.64.097-.64.086-.425.167-.64.143-.426.17-.424.204-.426.244-.428.294-.426.243-.3.322-.34.318-.286.213-.17.426-.293.427-.245.424-.204.426-.17.428-.143.64-.167.425-.086.64-.098.64-.068.852-.05L9.04 0h1.92l1.065.025.853.05.64.07.64.097.425.086.64.167.426.143.424.17.426.204.428.245.426.293.3.243.34.322.286.318.17.213.294.426.244.427.204.424.17.426.143.428.167.64.086.425.098.64.068.64.05.852L20 9.04v1.92l-.025 1.065-.05.853-.07.64-.097.64-.086.425-.167.64-.143.426-.17.424zM8.337 13.902l-.17-.034-.256-.07-.17-.056-.17-.068-.17-.082-.17-.098-.17-.117-.12-.098-.136-.13-.115-.126-.07-.085-.116-.17-.098-.17-.082-.17-.068-.17-.057-.17-.068-.258-.033-.17-.04-.256-.028-.256-.02-.34-.01-.426v-.768l.01-.426.02-.34.028-.257.04-.256.033-.17.068-.256.058-.17.068-.17.082-.17.098-.17.117-.17.097-.12.13-.136.126-.115.085-.07.17-.116.17-.098.173-.082.17-.068.17-.057.257-.068.17-.033.256-.04.256-.028.34-.02.426-.01h.768l.426.01.34.02.257.028.255.04.17.033.256.068.17.058.17.068.17.082.17.098.173.117.12.097.135.13.115.126.068.085.118.17.098.17.082.173.068.17.057.17.067.257.033.17.04.256.026.256.02.34.01.426v.768l-.01.426-.02.34-.03.257-.04.255-.032.17-.068.256-.057.17-.068.17-.082.17-.098.17-.117.173-.097.12-.13.135-.125.115-.085.068-.17.118-.17.098-.172.082-.17.068-.17.057-.257.067-.17.033-.255.04-.256.027-.34.02-.427.01h-.768l-.426-.01-.34-.02-.258-.028-.256-.04zm9.537 4.1l-.307.277-.213.17-.426.294-.427.244-.424.204-.426.17-.428.143-.64.167-.425.086-.64.098-.64.068-.852.05L10.96 20H9.04l-1.065-.025-.853-.05-.64-.07-.64-.097-.425-.086-.64-.167-.426-.143-.424-.17-.426-.204-.428-.244-.426-.294-.3-.243-.22-.21.307-.277.213-.17.426-.293.427-.245.424-.204.426-.17.428-.143.64-.167.425-.086.64-.098.64-.068.852-.05L9.04 16h1.92l1.065.025.853.05.64.07.64.097.425.086.64.167.426.143.424.17.426.204.428.245.426.293.3.243.22.21z" fill="#695EE8" fill-rule="nonzero"/></svg>
