<?xml version="1.0" encoding="UTF-8"?>
<svg version="1.1" xmlns="http://www.w3.org/2000/svg" xmlns:xlink="http://www.w3.org/1999/xlink">
<defs>
<clipPath id="clip0"><path fill="#fff" d="M0 0h24v24H0z"/></clipPath>
</defs>
<symbol id="i-add" viewBox="0 0 24 24" xmlns="http://www.w3.org/2000/svg"><path d="M11.071 13.071v6.072h2v-6.072h6.072v-2H13.07v-6.07h-2v6.07h-6.07v2h6.07z"/></symbol>
<symbol id="i-arrow-right" viewBox="0 0 24 25" fill="none" xmlns="http://www.w3.org/2000/svg"><path d="M10.096 18.535L16 12.631l-5.904-5.903" stroke="#969698" stroke-width="2" stroke-linecap="round" stroke-linejoin="round"/></symbol>
<symbol id="i-burger-icon-white" viewBox="0 0 24 24" fill="none" xmlns="http://www.w3.org/2000/svg" class="burder-icon"><path fill-rule="evenodd" clip-rule="evenodd" d="M2 3h20v4H2V3zm0 7h20v4H2v-4zm20 7H2v4h20v-4z" fill="#FFF"/></symbol>
<symbol id="i-burger-icon" viewBox="0 0 24 24" fill="none" xmlns="http://www.w3.org/2000/svg" class="burder-icon"><path fill-rule="evenodd" clip-rule="evenodd" d="M2 3h20v4H2V3zm0 7h20v4H2v-4zm20 7H2v4h20v-4z" fill="#101010"/></symbol>
<symbol id="i-close" viewBox="0 0 32 32" xmlns="http://www.w3.org/2000/svg"><path d="M8 8a1.616 1.616 0 000 2.286l5.714 5.715L8 21.715A1.616 1.616 0 1010.286 24L16 18.287 21.714 24A1.616 1.616 0 1024 21.715L18.286 16 24 10.286A1.616 1.616 0 1021.715 8L16 13.715 10.285 8A1.616 1.616 0 008 8z"/></symbol>
<symbol id="i-comment-icon" viewBox="0 0 24 24" fill="none" xmlns="http://www.w3.org/2000/svg"><path d="M5 6.674a2 2 0 012-2h10a2 2 0 012 2v13l-4-2.593H7a2 2 0 01-2-2V6.674z"/></symbol>
<symbol id="i-delete" viewBox="0 0 24 24" xmlns="http://www.w3.org/2000/svg"><g clip-path="url(#clip0)"><path fill-rule="evenodd" clip-rule="evenodd" d="M9.5 5a1 1 0 011-1h4a1 1 0 011 1h2a3 3 0 00-3-3h-4a3 3 0 00-3 3h2zM5.157 7.969l1.152 10.393a3 3 0 002.982 2.67h6.418a3 3 0 002.982-2.67l1.152-10.393H21v-2H4v2h1.157zm2.012 0L8.297 18.14a1 1 0 00.994.89h6.418a1 1 0 00.994-.89L17.831 7.97H7.17zm7.623 3.043a1 1 0 010 1.414l-.878.877.878.878a1 1 0 11-1.415 1.414l-.877-.878-.877.878a1 1 0 01-1.415-1.414l.878-.878-.878-.877a1 1 0 111.415-1.414l.877.877.877-.877a1 1 0 011.415 0z"/></g></symbol>
<symbol id="i-eye" viewBox="0 0 24 24" fill="none" xmlns="http://www.w3.org/2000/svg"><path fill-rule="evenodd" clip-rule="evenodd" d="M2 12c1.573-3.991 5.455-7 10-7 4.55 0 8.427 3.009 10 7-1.573 3.99-5.45 7-10 7-4.545 0-8.427-3.01-10-7zm10 4.7A4.702 4.702 0 017.3 12c0-2.594 2.105-4.7 4.7-4.7 2.594 0 4.7 2.106 4.7 4.7 0 2.594-2.106 4.7-4.7 4.7z" fill="#000"/><path fill-rule="evenodd" clip-rule="evenodd" d="M12.397 9.026A3.003 3.003 0 009 12c0 1.655 1.345 3 3 3a3.003 3.003 0 002.974-3.398 1.833 1.833 0 01-2.577-2.576z" fill="#000"/></symbol>
<symbol id="i-facebook" viewBox="0 0 10 16" xmlns="http://www.w3.org/2000/svg"><path d="M9.5.003L7.166 0C4.543 0 2.849 1.546 2.849 3.938v1.815H.502c-.203 0-.367.146-.367.327v2.63c0 .18.164.326.367.326h2.347v6.638c0 .18.164.326.367.326h3.062c.203 0 .367-.146.367-.326V9.036h2.744c.203 0 .367-.146.367-.326l.001-2.63a.31.31 0 00-.107-.231.392.392 0 00-.26-.096H6.645V4.214c0-.74.198-1.115 1.282-1.115H9.5c.202 0 .366-.147.366-.327V.33c0-.18-.164-.326-.366-.327z"/></symbol>
<symbol id="i-favorite-icon" viewBox="0 0 24 24" xmlns="http://www.w3.org/2000/svg"><path d="M6 18.828l6.253-2.541 6.247 2.542V8.085C18.5 6.955 17.474 6 16.17 6H8.33C7.025 6 6 6.954 6 8.085v10.743z"/></symbol>
<symbol id="i-lh-logo-black" viewBox="0 0 147 32" fill="none" xmlns="http://www.w3.org/2000/svg" class="lh-logo-black"><path fill-rule="evenodd" clip-rule="evenodd" d="M43.717 1.333l-5.201 2.999v1.637h6.756V1.333h-1.555zm95.401 6.233c-1.552 0-3.42.158-4.49.249-.43.036-.73.061-.831.061v19.401h4.311v-6.621c.629.104 1.265.156 1.903.155 3.96 0 6.989-2.61 6.989-6.583 0-4.519-3.339-6.662-7.882-6.662zm.389 9.624a3.894 3.894 0 01-1.398-.225v-5.5c.224-.038.972-.038 1.398-.038 1.903 0 3.184.934 3.184 2.882 0 1.87-1.32 2.881-3.184 2.881zm-10.518 3.28h-4.156v2.914h5.356v3.895h-9.59V7.8h9.283v3.891h-5.049v5.032h4.156v3.749zm-19.842-3.124V7.8h-4.232v19.48h4.232v-6.305h.776l4.97 6.304h1.795v-4.518c-.339-.464-.721-.978-1.108-1.496l-.001-.002c-.586-.787-1.181-1.585-1.648-2.242a133.158 133.158 0 001.629-5.104l1.824-6.117h-4.434l-2.872 9.544-.931.002zm-54.433.194c0 3.118 2.524 4.56 4.077 4.56v-9.117c-1.557 0-4.077 1.439-4.077 4.557zm-11.501 9.742v-5.494l-.69-.002-4.581 5.493H35.65V7.8h4.263v2.964c0 2.019-.116 5.442-.197 7.814v.001l-.027.794h.698l2.825-3.692V7.8h4.263v19.482h-4.263zM2.758 15.242c0 3.896-.514 7.753-2.758 8.57v4.17c5.242-.545 6.873-5.143 6.873-12V11.24h2.796v16.05h4.263V7.8H2.758v7.443zm64.257 2.309c0-3.118-2.524-4.56-4.077-4.56V22.1c1.553 0 4.077-1.43 4.077-4.548zM62.94 25.5c4.659 0 8.388-3.274 8.388-7.948S67.6 9.604 62.939 9.604V6.945h-4.15v2.648c-4.659 0-8.388 3.274-8.388 7.948s3.727 7.947 8.387 7.947v2.338h4.151V25.5zM75.393 7.8c.864 1.56 2.02 3.665 2.805 5.232l.817-.011c.703-1.411 1.724-3.27 2.546-4.766l.25-.456h1.862v5.339l-2.446 4.052 2.79 4.715v5.376h-1.865L79.01 21.36h-.814l-3.141 5.921H73.19v-5.376l2.785-4.715-2.446-4.052V7.799h1.864zm21.992 0h-6.642l-5.204 19.48h4.349l.855-3.432h6.642l.854 3.43h4.349L97.385 7.8zm-5.712 12.466h4.775l-2.017-8.22h-.776l-1.982 8.22zM28.111 7.8h-6.64l-5.203 19.48h4.348l.855-3.431h6.64l.855 3.429h4.348L28.111 7.799zM22.4 20.266h4.777l-2.02-8.22h-.776l-1.981 8.22z" fill="#101010"/></symbol>
<symbol id="i-lh-logo-white" viewBox="0 0 110 24" fill="none" xmlns="http://www.w3.org/2000/svg"><path fill-rule="evenodd" clip-rule="evenodd" d="M32.713 1l-3.892 2.25v1.227h5.056V1h-1.164zm71.389 4.674c-1.162 0-2.56.12-3.36.187-.321.027-.547.047-.622.047v14.55h3.226v-4.966c.471.078.947.117 1.424.117 2.963 0 5.23-1.957 5.23-4.938 0-3.389-2.498-4.997-5.898-4.997zm.291 7.219a2.905 2.905 0 01-1.046-.169V8.6c.168-.029.727-.029 1.046-.029 1.424 0 2.383.701 2.383 2.162 0 1.403-.988 2.161-2.383 2.161zm-7.87 2.46h-3.11v2.186h4.008v2.92h-7.177V5.85h6.947v2.918h-3.778v3.774h3.11v2.812zM81.673 13.01V5.85h-3.166v14.61h3.166v-4.728h.581l3.72 4.728h1.343v-3.39c-.254-.347-.54-.733-.83-1.122v-.001h-.001v-.002l-.002-.001c-.438-.589-.882-1.187-1.23-1.678.379-1.108.894-2.717 1.218-3.828l1.365-4.588H84.52l-2.149 7.158-.697.002zm-40.732.145c0 2.34 1.89 3.42 3.051 3.42V9.738c-1.165 0-3.05 1.079-3.05 3.417zm-8.606 7.307v-4.12l-.515-.002-3.43 4.12h-1.713V5.85h3.19v2.222c0 1.515-.087 4.082-.148 5.862l-.02.596h.522l2.114-2.77V5.85h3.19v14.612h-3.19zm-30.272-9.03c0 2.922-.385 5.814-2.064 6.427v3.127c3.922-.408 5.143-3.856 5.143-9V8.43h2.092v12.038h3.19V5.85H2.064v5.582zm48.083 1.731c0-2.338-1.889-3.42-3.05-3.42v6.831c1.161 0 3.05-1.072 3.05-3.41zm-3.05 5.962c3.486 0 6.277-2.455 6.277-5.96 0-3.506-2.789-5.961-6.277-5.961V5.209h-3.106v1.986c-3.486 0-6.276 2.455-6.276 5.96 0 3.506 2.789 5.962 6.276 5.962v1.752h3.106v-1.744zm9.32-13.275c.646 1.17 1.51 2.749 2.099 3.924l.61-.008c.527-1.058 1.291-2.453 1.906-3.575l.187-.341h1.393v4.004l-1.83 3.039 2.087 3.536v4.032h-1.395l-2.35-4.44h-.61l-2.35 4.44h-1.396V16.43l2.084-3.536-1.83-3.04V5.85h1.395zm16.456 0h-4.97l-3.894 14.61h3.254l.64-2.573h4.97l.64 2.571h3.253L72.873 5.85zm-4.274 9.35h3.573l-1.51-6.165h-.58L68.599 15.2zM21.035 5.85h-4.968l-3.894 14.61h3.254l.64-2.574h4.968l.64 2.572h3.254L21.035 5.85zm-4.273 9.35h3.575l-1.51-6.165h-.582L16.762 15.2z" fill="#fff"/></symbol>
<symbol id="i-new-year-logo" viewBox="0 0 113 22" fill="none" xmlns="http://www.w3.org/2000/svg"><path fill-rule="evenodd" clip-rule="evenodd" d="M18.678.043a.293.293 0 00-.108.117l-.606 1.221a.29.29 0 01-.215.158l-1.359.196a.29.29 0 00-.233.194.283.283 0 00.073.293l.984.957a.285.285 0 01.083.252l-.233 1.348a.285.285 0 00.266.334.293.293 0 00.155-.033l1.21-.633a.291.291 0 01.272 0l1.21.633a.293.293 0 00.406-.144.283.283 0 00.018-.157l-.233-1.348a.285.285 0 01.082-.252l.987-.957a.284.284 0 00-.161-.487l-1.36-.196a.29.29 0 01-.217-.158L19.092.16a.293.293 0 00-.414-.117zm10.93 3.33l3.997-2.305h1.196v3.564h-5.194V3.374zM106.94 5.86c-1.193 0-2.629.122-3.452.192-.33.028-.561.047-.638.047v14.914h3.313v-5.09c.484.08.973.12 1.463.12 3.044 0 5.373-2.007 5.373-5.061 0-3.474-2.567-5.122-6.059-5.122zm.299 7.399c-.366.009-.73-.05-1.075-.173V8.857c.173-.03.747-.03 1.075-.03 1.462 0 2.447.719 2.447 2.216 0 1.438-1.014 2.215-2.447 2.215zm-8.085 2.522H95.96v2.24h4.117v2.993h-7.372V6.04h7.136v2.99h-3.88v3.87h3.194v2.88zm-15.253-2.402V6.038h-3.253v14.974h3.253v-4.846h.597l3.82 4.846h1.38V17.54c-.261-.357-.555-.752-.852-1.15-.45-.606-.908-1.22-1.268-1.725.39-1.135.92-2.785 1.253-3.923l1.402-4.703h-3.408l-2.208 7.337-.716.002zm-50.684 3.414v4.223h3.277V6.04h-3.277v6.058l-2.172 2.838h-.536l.02-.61c.063-1.824.152-4.456.152-6.008V6.039h-3.277v14.974h1.761l3.522-4.223.53.002zM0 18.348c1.725-.628 2.12-3.593 2.12-6.587V6.039h8.59v14.983H7.432V8.684H5.283v3.645c0 5.271-1.254 8.805-5.283 9.224v-3.205zm48.382 1.297c3.58 0 6.448-2.516 6.448-6.11 0-3.592-2.865-6.109-6.448-6.109V5.382h-3.191v2.036c-3.58 0-6.448 2.516-6.448 6.11 0 3.592 2.865 6.109 6.448 6.109v1.796h3.191v-1.788zm-3.19-2.614c-1.193 0-3.133-1.107-3.133-3.504 0-2.397 1.937-3.503 3.134-3.503v7.007zm6.323-3.496c0-2.397-1.94-3.505-3.134-3.505v7.001c1.194 0 3.134-1.099 3.134-3.496zm6.44-7.496c.664 1.2 1.553 2.818 2.156 4.022l.628-.008c.54-1.085 1.326-2.514 1.957-3.664l.192-.35h1.432v4.104l-1.88 3.115 2.144 3.624v4.133h-1.433l-2.415-4.552h-.626l-2.415 4.552H56.26v-4.133l2.141-3.624-1.88-3.115V6.039h1.433zM14.221 16.442h-1.089v-.768l2.434-4.997h-.96v-.769l3.074-3.843h2.306l3.075 3.843v.77h-.96l2.434 4.996v.768h-1.09l1.922 4.613H12.3l1.922-4.613zm6.534-.768h-3.843l1.537-5.381h.769l1.537 5.38zm-5.38 5.38h6.918l-1.154-2.69h-4.612l-1.153 2.69zm52.655-4.612h-1.089v-.768l2.435-4.997h-.961v-.769l3.075-3.843h2.306l3.075 3.843v.77h-.961l2.434 4.996v.768h-1.09l1.923 4.613H66.109l1.921-4.613zm6.534-.768h-3.843l1.537-5.381h.769l1.537 5.38zm-5.38 5.38h6.918l-1.153-2.69h-4.612l-1.154 2.69zM72.486.045a.293.293 0 00-.107.116l-.607 1.221a.29.29 0 01-.215.158l-1.358.196a.288.288 0 00-.24.35c.013.053.04.1.079.137l.984.957a.286.286 0 01.083.252l-.233 1.348a.283.283 0 00.116.28.293.293 0 00.306.02l1.21-.632a.291.291 0 01.271 0l1.21.633a.293.293 0 00.406-.144.285.285 0 00.018-.157l-.233-1.348a.284.284 0 01.083-.252l.986-.957a.283.283 0 00-.016-.423.289.289 0 00-.145-.064l-1.359-.196a.29.29 0 01-.218-.158L72.9.16a.293.293 0 00-.413-.117z" fill="#fff"/></symbol>
<symbol id="i-pencil-icon" viewBox="0 0 24 24" xmlns="http://www.w3.org/2000/svg"><path d="M4 15.665v3.333h3.333l9.83-9.83-3.333-3.333L4 15.665zm15.74-9.074a.885.885 0 000-1.253l-2.08-2.08a.885.885 0 00-1.253 0l-1.626 1.626 3.333 3.333 1.626-1.626z"/></symbol>
<symbol id="i-pinterest" viewBox="0 0 17 16" xmlns="http://www.w3.org/2000/svg"><path d="M13.447 1.64C12.277.582 10.657 0 8.887 0 6.184 0 4.52 1.043 3.602 1.918 2.468 2.997 1.819 4.43 1.819 5.848c0 1.78.791 3.148 2.117 3.656a.739.739 0 00.266.052c.28 0 .501-.172.578-.449.045-.158.149-.55.194-.719.096-.335.018-.496-.192-.73-.384-.427-.562-.931-.562-1.588 0-1.952 1.544-4.026 4.406-4.026 2.27 0 3.68 1.214 3.68 3.17 0 1.233-.282 2.376-.795 3.217-.356.585-.983 1.281-1.945 1.281-.416 0-.79-.16-1.025-.441a1.06 1.06 0 01-.207-.964c.101-.404.24-.824.373-1.23.243-.744.474-1.445.474-2.005 0-.957-.626-1.6-1.556-1.6-1.183 0-2.11 1.13-2.11 2.573 0 .708.2 1.237.291 1.44l-1.202 4.793c-.097.388-.682 3.46.286 3.704 1.088.275 2.06-2.715 2.16-3.053.08-.275.36-1.315.532-1.953.525.476 1.371.797 2.194.797a5.002 5.002 0 003.928-1.85c.952-1.156 1.476-2.768 1.476-4.54 0-1.384-.631-2.748-1.733-3.743z"/></symbol>
<symbol id="i-restore" viewBox="0 0 24 24" xmlns="http://www.w3.org/2000/svg"><path d="M13 3a9 9 0 00-9 9H1l3.89 3.89.07.14L9 12H6c0-3.87 3.13-7 7-7s7 3.13 7 7-3.13 7-7 7c-1.93 0-3.68-.79-4.94-2.06l-1.42 1.42A8.954 8.954 0 0013 21a9 9 0 000-18z"/></symbol>
<symbol id="i-share-icon" viewBox="0 0 24 24" fill="none" xmlns="http://www.w3.org/2000/svg"><path d="M20.472 9.186l-5.046-5A.609.609 0 0014.984 4a.609.609 0 00-.443.186.599.599 0 00-.188.44v2.5h-2.207c-4.684 0-7.558 1.311-8.623 3.935-.348.872-.522 1.956-.522 3.252 0 1.08.417 2.548 1.252 4.404a22.811 22.811 0 00.236.527c.04.085.082.156.128.215.079.11.17.166.276.166a.289.289 0 00.232-.098.362.362 0 00.083-.244 1.97 1.97 0 00-.024-.259 2.003 2.003 0 01-.025-.229c-.033-.443-.05-.843-.05-1.201 0-.658.058-1.247.173-1.768.115-.52.274-.971.478-1.352.204-.381.467-.71.789-.986a4.627 4.627 0 011.04-.679 5.672 5.672 0 011.31-.415c.502-.101 1.008-.171 1.517-.21a22.81 22.81 0 011.73-.059h2.207v2.5c0 .17.063.316.187.44a.61.61 0 00.444.185.61.61 0 00.444-.185l5.045-5a.598.598 0 00.187-.44.6.6 0 00-.187-.44z"/></symbol>
<symbol id="i-tick" viewBox="0 0 24 24" fill="none" xmlns="http://www.w3.org/2000/svg"><path d="M9 12l2.257 2.256 4.496-4.496" stroke="#3670F9" stroke-width="2" stroke-linecap="round"/></symbol>
<symbol id="i-to" viewBox="0 0 16 17" fill="none" xmlns="http://www.w3.org/2000/svg"><path d="M6.364 4.428l4.363 4.364-4.363 4.364" stroke="#969698" stroke-width="2" stroke-linecap="round"/></symbol>
<symbol id="i-twitter" viewBox="0 0 18 15" xmlns="http://www.w3.org/2000/svg"><path d="M17.714 2.894c-.4.157-.815.282-1.24.372.468-.397.821-.893 1.02-1.446.057-.158-.136-.295-.296-.21a7.684 7.684 0 01-1.898.697.542.542 0 01-.45-.1 4.172 4.172 0 00-2.568-.862c-.41 0-.823.057-1.23.17-1.258.346-2.229 1.269-2.533 2.407a3.283 3.283 0 00-.092 1.27.116.116 0 01-.035.097.152.152 0 01-.121.043C5.516 5.104 3.033 3.925 1.277 2.01c-.09-.097-.261-.085-.332.023a3.158 3.158 0 00-.526 1.734c0 .936.423 1.817 1.157 2.46a3.75 3.75 0 01-.885-.305c-.135-.067-.3.019-.302.155-.019 1.39.896 2.626 2.267 3.182a3.943 3.943 0 01-.737-.054c-.151-.026-.278.101-.231.232.445 1.235 1.64 2.145 3.072 2.351a7.81 7.81 0 01-4.01 1.083H.3c-.138 0-.255.08-.29.199-.035.117.03.24.147.302a11.688 11.688 0 005.352 1.283c1.645 0 3.184-.29 4.574-.863a10.092 10.092 0 003.346-2.229 9.62 9.62 0 002.05-3.05 8.695 8.695 0 00.696-3.34v-.052c0-.177.09-.343.247-.457a7.188 7.188 0 001.543-1.505c.113-.15-.065-.339-.25-.265z"/></symbol>
<symbol id="i-vk" viewBox="0 0 20 12" xmlns="http://www.w3.org/2000/svg"><path d="M17.213 7.63c.663.687 1.363 1.333 1.959 2.089.262.336.511.683.701 1.072.27.555.026 1.165-.443 1.198l-2.913-.002c-.752.066-1.351-.254-1.855-.8-.404-.435-.777-.898-1.165-1.349a2.82 2.82 0 00-.525-.494c-.397-.274-.743-.19-.97.25-.231.447-.284.943-.307 1.441-.03.728-.238.919-.928.952-1.472.074-2.87-.162-4.169-.95-1.145-.695-2.032-1.675-2.805-2.785C2.289 6.091 1.136 3.716.101 1.275-.132.725.038.429.611.419 1.56.399 2.51.4 3.463.417c.387.006.642.241.792.628.514 1.341 1.143 2.617 1.933 3.799.21.315.425.63.73.85.338.246.595.165.754-.234.101-.253.145-.526.168-.797.075-.932.085-1.863-.047-2.792-.08-.58-.389-.955-.935-1.065C6.58.75 6.621.64 6.756.472 6.99.18 7.211 0 7.65 0h3.293c.518.108.633.355.704.908l.003 3.878c-.006.215.1.85.464.992.291.1.483-.146.658-.342.788-.887 1.351-1.936 1.854-3.021.223-.478.415-.974.6-1.469.138-.368.355-.548.745-.54l3.17.003c.093 0 .188.001.28.018.533.096.68.34.515.893-.26.867-.766 1.59-1.26 2.316-.529.775-1.094 1.524-1.618 2.304-.482.713-.443 1.072.155 1.69z"/></symbol>
</svg>