<svg enable-background="new 0 0 24 24" height="512" viewBox="0 0 24 24" width="512" xmlns="http://www.w3.org/2000/svg"><path d="m7 14c-3.859 0-7-3.141-7-7s3.141-7 7-7 7 3.141 7 7-3.141 7-7 7zm0-13c-3.309 0-6 2.691-6 6s2.691 6 6 6 6-2.691 6-6-2.691-6-6-6z"/><path d="m7.5 10.5h-2.5c-.276 0-.5-.224-.5-.5s.224-.5.5-.5h2.5c.552 0 1-.448 1-1s-.448-1-1-1h-1c-1.103 0-2-.897-2-2s.897-2 2-2h2.5c.276 0 .5.224.5.5s-.224.5-.5.5h-2.5c-.552 0-1 .448-1 1s.448 1 1 1h1c1.103 0 2 .897 2 2s-.897 2-2 2z"/><path d="m7 12c-.276 0-.5-.224-.5-.5v-1.5c0-.276.224-.5.5-.5s.5.224.5.5v1.5c0 .276-.224.5-.5.5z"/><path d="m7 4.5c-.276 0-.5-.224-.5-.5v-1.5c0-.276.224-.5.5-.5s.5.224.5.5v1.5c0 .276-.224.5-.5.5z"/><path d="m11.25 24c-2.619 0-4.75-2.131-4.75-4.75v-5.75c0-.276.224-.5.5-.5s.5.224.5.5v5.75c0 2.067 1.683 3.75 3.75 3.75s3.75-1.683 3.75-3.75v-14.25c0-1.654 1.346-3 3-3s3 1.346 3 3v10.5c0 .276-.224.5-.5.5s-.5-.224-.5-.5v-10.5c0-1.103-.897-2-2-2s-2 .897-2 2v14.25c0 2.619-2.131 4.75-4.75 4.75z"/><path d="m20.5 24c-1.93 0-3.5-1.57-3.5-3.5v-4c0-.827.673-1.5 1.5-1.5h4c.827 0 1.5.673 1.5 1.5v4c0 1.93-1.57 3.5-3.5 3.5zm-2-8c-.275 0-.5.225-.5.5v4c0 1.379 1.121 2.5 2.5 2.5s2.5-1.121 2.5-2.5v-4c0-.275-.225-.5-.5-.5z"/></svg>