<svg width="222" height="129" viewBox="0 0 222 129" fill="none" xmlns="http://www.w3.org/2000/svg"><path d="M29 0C15.5-.7 11 15.1 6 25.1l.2-.3c-3 8-7.8 14-5.7 22.9C4.8 61.8 23.2 55.9 34 55c10.9-1 26.4-6.9 25-20-1.6-9.6-9.9-18.7-15.3-26.6v.1A18.1 18.1 0 0029 0zm-6.4 33.8c1.4-3.2 2.6-6.6 4.7-9.2 14.3 7.5 6.4 12.8-5.8 12l1.1-2.8z" fill="#9146FF"/><path d="M145.7 17a23.8 23.8 0 00-17.7 7.1c-1 .6-2 1-2.8 1.6-4.8 2.4-8 6.6-11.5 10.4-8.5 8-9.9 14.5-10.3 25.7a68.8 68.8 0 007.3 38.7c12 33.9 51.4 33.7 78.8 19.3 29-10.5 38-41.4 29.3-69-10.5-26.4-47.4-34.3-73-33.8z" fill="#fff"/><path d="M74.6 35c2.1 2.2 5.5-1.1 3.4-3.3-2-2.3-5.5 1-3.4 3.3zM106.2 11.5c-4.1.2-9 1.2-11.5 4.8A8 8 0 0098.6 28c11.5 5.1 20.7-13 7.6-16.5zm0 4.8c4.7 3.6-1.4 9.6-5.9 7.3-6-3.6 1.8-8.1 6-7.3z" fill="#1B1B20"/></svg>
