<svg id="Capa_1" enable-background="new 0 0 512 512" height="512" viewBox="0 0 512 512" width="512" xmlns="http://www.w3.org/2000/svg"><g><path d="m408.263 150.142h-29.986c-4.101 0-7.426 3.325-7.426 7.426s3.325 7.426 7.426 7.426h29.986c49.012 0 88.886 39.874 88.886 88.886s-39.874 88.886-88.886 88.886h-183.45c-4.101 0-7.426 3.325-7.426 7.426s3.325 7.426 7.426 7.426h183.45c57.201 0 103.737-46.537 103.737-103.738 0-57.202-46.537-103.738-103.737-103.738z"/><path d="m420.546 215.183c-18.953-18.953-49.791-18.953-68.743 0-18.953 18.952-18.953 49.791 0 68.743 9.181 9.181 21.387 14.237 34.371 14.237 10.474 0 20.439-3.295 28.722-9.386l18.692 18.692c2.9 2.9 7.602 2.9 10.501 0 2.9-2.9 2.9-7.602 0-10.501l-18.693-18.694c13.933-19.004 12.317-45.924-4.85-63.091zm-.454 34.364c0 18.66-15.127 33.787-33.787 33.787s-33.787-15.127-33.787-33.787 15.127-33.787 33.787-33.787 33.787 15.127 33.787 33.787z"/><path d="m191.285 164.993h153.707c4.101 0 7.426-3.325 7.426-7.426s-3.325-7.426-7.426-7.426h-177.101c-15.32-7.347-32.47-11.468-50.565-11.468-64.694.001-117.326 52.633-117.326 117.327s52.632 117.326 117.326 117.326 117.325-52.632 117.325-117.326c0-36.679-16.923-69.476-43.366-91.007zm28.244 83.581h-34.646c-1.229-35.679-11.259-66.579-26.487-86.448 33.963 14.917 58.347 47.737 61.133 86.448zm-94.778 108.834v-93.982h45.274c-1.85 47.439-21.238 87.093-45.274 93.982zm0-108.834v-93.982c24.036 6.889 43.424 46.543 45.274 93.982zm-14.851-93.982v93.982h-45.274c1.85-47.439 21.238-87.093 45.274-93.982zm-33.64 7.532c-15.23 19.869-25.263 50.769-26.492 86.45h-34.646c2.786-38.713 27.172-71.534 61.138-86.45zm-61.138 101.302h34.65c.215 6.081.682 12.117 1.419 18.017.509 4.07 4.222 6.959 8.289 6.447 4.07-.509 6.956-4.22 6.447-8.289-.662-5.295-1.082-10.713-1.29-16.175h45.263v93.953c-14.812-4.319-28.538-21.296-36.984-46.464-1.305-3.888-5.515-5.984-9.402-4.678-3.888 1.305-5.983 5.514-4.678 9.402 4.569 13.617 10.526 25.159 17.485 34.264-33.997-14.904-58.411-47.741-61.199-86.477zm143.274 86.447c15.228-19.869 25.257-50.769 26.486-86.448h34.646c-2.785 38.712-27.169 71.531-61.132 86.448z"/><ellipse cx="259.211" cy="289.735" rx="9.214" ry="9.214" transform="matrix(.988 -.152 .152 .988 -41.025 42.763)"/><ellipse cx="289.9" cy="289.735" rx="9.214" ry="9.214" transform="matrix(.987 -.16 .16 .987 -42.667 50.178)"/><ellipse cx="320.59" cy="289.735" rx="9.214" ry="9.214" transform="matrix(.987 -.16 .16 .987 -42.271 55.094)"/></g></svg>