<?xml version="1.0" encoding="utf-8"?>
<!-- Generator: Adobe Illustrator 23.0.3, SVG Export Plug-In . SVG Version: 6.00 Build 0)  -->
<svg version="1.1" id="wave" xmlns="http://www.w3.org/2000/svg" xmlns:xlink="http://www.w3.org/1999/xlink" x="0px" y="0px"
	 viewBox="0 0 897.4 307.9" style="enable-background:new 0 0 897.4 307.9;" xml:space="preserve">
<style type="text/css">
	.st0{opacity:0.85;clip-path:url(#SVGID_2_);fill:url(#SVGID_3_);}
	.st1{opacity:0.9;clip-path:url(#SVGID_2_);fill:url(#SVGID_4_);}
</style>
<g>
	<defs>
		<rect id="SVGID_1_" width="897.4" height="314.1"/>
	</defs>
	<clipPath id="SVGID_2_">
		<use xlink:href="#SVGID_1_"  style="overflow:visible;"/>
	</clipPath>
	
		<linearGradient id="SVGID_3_" gradientUnits="userSpaceOnUse" x1="448.7021" y1="307.8705" x2="448.7021" y2="-1.818989e-12" gradientTransform="matrix(1 0 0 -1 0 314.0851)">
		<stop  offset="0" style="stop-color:#000000"/>
		<stop  offset="1" style="stop-color:#000000"/>
	</linearGradient>
	<path class="st0" d="M1168.7,212v102.1l-10-6.8c-10-6.7-30-20.5-50-20.4c-20-0.1-40,13.7-60,8.5c-20-5-40-29-60-30.6
		c-20-1.7-40,18.7-60,25.5c-20,6.7-40,0.1-60-5.1c-20-5-40-8.6-60-6.8c-20,1.8-40,8.4-60,6.8c-20-1.7-40-11.9-60-18.7
		c-20-6.7-40-10.3-60-8.5c-20,1.8-40,8.4-60,6.8c-20-1.7-40-11.9-60-6.8c-20,5.1-40,25.5-60,22.1c-20-3.5-40-30.6-60-35.7
		c-20-5-40,11.8-60,22.1c-20,10.1-40,13.7-60,11.9c-20-1.8-40-8.4-60-3.4c-20,5.2-40,22-60,18.7c-20-3.3-40-27.3-60-40.8
		s-40-17.1-60-17c-20-0.1-40,3.5-60,15.3c-20,11.9-40,32.3-60,39.1c-20,6.7-40,0.1-60-3.4c-20-3.4-40-3.4-60-11.9
		c-20-8.6-40-25.5-50-34l-10-8.5V212V6.2h1440V212L1168.7,212z"/>
	
		<linearGradient id="SVGID_4_" gradientUnits="userSpaceOnUse" x1="448.7021" y1="24.4709" x2="448.7021" y2="313.3829" gradientTransform="matrix(1 0 0 -1 0 314.0851)">
		<stop  offset="0" style="stop-color:#000000"/>
		<stop  offset="1" style="stop-color:#000000"/>
	</linearGradient>
	<path class="st1" d="M1158.7,269.2c-10,3.5-30,10.1-50,13.6c-20,3.4-40,3.4-60-1.7c-20-5.1-40-15.3-60-20.4c-20-5.1-40-5.1-60-8.5
		c-20-3.5-40-10.1-60-15.3c-20-5-40-8.6-60-11.9s-40-6.9-60-10.2c-20-3.3-40-6.9-60,6.8c-20,13.6-40,44.2-60,44.2s-40-30.6-60-34
		c-20-3.5-40,20.5-60,25.5c-20,5.2-40-8.6-60-13.6c-20-5.2-40-1.6-60,0c-20,1.7-40,1.7-60,10.2c-20,8.6-40,25.5-60,32.3
		s-40,3.3-60-10.2c-20-13.5-40-37.5-60-51s-40-17.1-60-6.8c-20,10.1-40,34.1-60,45.9c-20,11.9-40,11.9-60,13.6
		c-20,1.6-40,5.2-60-1.7s-40-23.7-60-25.5c-20-1.8-40,12-60,18.7c-20,6.8-40,6.8-50,6.8h-10v-81.7V0.7h1440v193.6v71.5L1158.7,269.2
		z"/>
</g>
</svg>
