<svg xmlns="http://www.w3.org/2000/svg" xmlns:xlink="http://www.w3.org/1999/xlink" viewBox="0 0 323.11 287.91"><defs><style>.cls-1{isolation:isolate;}.cls-2,.cls-4{fill:#45108a;}.cls-2,.cls-3,.cls-61,.cls-62{mix-blend-mode:screen;}.cls-5{opacity:0.2;}.cls-6{opacity:0;}.cls-7{opacity:0.09;}.cls-8{opacity:0.18;}.cls-9{opacity:0.27;}.cls-10{opacity:0.36;}.cls-11{opacity:0.45;}.cls-12{opacity:0.55;}.cls-13{opacity:0.64;}.cls-14{opacity:0.73;}.cls-15{opacity:0.82;}.cls-16{opacity:0.91;}.cls-17{fill:url(#linear-gradient);}.cls-18{fill:url(#linear-gradient-2);}.cls-19{fill:url(#linear-gradient-3);}.cls-20,.cls-31,.cls-46,.cls-56,.cls-63{mix-blend-mode:color-dodge;}.cls-20{fill:url(#Radial_Gradient_1);}.cls-21{fill:url(#linear-gradient-4);}.cls-22{fill:#1f0d3d;}.cls-23,.cls-31{fill:#3d065f;}.cls-24{fill:url(#linear-gradient-5);}.cls-25{fill:url(#linear-gradient-6);}.cls-26{fill:url(#linear-gradient-7);}.cls-27{fill:url(#linear-gradient-8);}.cls-28{fill:url(#linear-gradient-9);}.cls-29{fill:url(#linear-gradient-10);}.cls-30{fill:url(#linear-gradient-11);}.cls-32{fill:#a56ef4;}.cls-33{opacity:0.02;}.cls-34{opacity:0.05;}.cls-35{opacity:0.07;}.cls-36{opacity:0.1;}.cls-37{opacity:0.12;}.cls-38{opacity:0.15;}.cls-39{opacity:0.17;}.cls-40{opacity:0.2;}.cls-41{opacity:0.22;}.cls-42{opacity:0.25;}.cls-43{opacity:0.27;}.cls-44{opacity:0.3;}.cls-45{fill:url(#linear-gradient-12);}.cls-46{fill:url(#Radial_Gradient_1-2);}.cls-47{fill:#fff;}.cls-48{fill:#7c1dc9;}.cls-49{fill:url(#New_Gradient_Swatch_copy_25);}.cls-50{fill:url(#New_Gradient_Swatch_copy_9);}.cls-51{fill:url(#New_Gradient_Swatch_copy_9-2);}.cls-52{fill:url(#New_Gradient_Swatch_copy_9-3);}.cls-53{fill:url(#New_Gradient_Swatch_copy_10);}.cls-54{fill:#f745be;}.cls-55{fill:#e6e7e8;}.cls-56{fill:url(#Radial_Gradient_1-3);}.cls-57{fill:url(#New_Gradient_Swatch_copy_13);}.cls-58,.cls-59,.cls-60{fill:#b4299a;}.cls-59{opacity:0.4;}.cls-60{opacity:0.1;}.cls-61{fill:url(#radial-gradient);}.cls-62{fill:url(#radial-gradient-2);}.cls-63{fill:url(#linear-gradient-13);}</style><linearGradient id="linear-gradient" x1="7041.85" y1="230.53" x2="7335.67" y2="230.53" gradientTransform="matrix(-1, 0, 0, 1, 7633.68, 0)" gradientUnits="userSpaceOnUse"><stop offset="0" stop-color="#2f054a"/><stop offset="1" stop-color="#5824b0"/></linearGradient><linearGradient id="linear-gradient-2" x1="7080.48" y1="229.26" x2="7374.3" y2="229.26" gradientTransform="matrix(-1, 0, 0, 1, 7633.68, 0)" gradientUnits="userSpaceOnUse"><stop offset="0.06" stop-color="#2f0d5e"/><stop offset="0.28" stop-color="#2f105f"/><stop offset="0.47" stop-color="#311b61"/><stop offset="0.48" stop-color="#351f65"/><stop offset="0.5" stop-color="#422c73"/><stop offset="0.51" stop-color="#584188"/><stop offset="0.52" stop-color="#765fa7"/><stop offset="0.53" stop-color="#8770b8"/><stop offset="0.54" stop-color="#7e67ae"/><stop offset="0.56" stop-color="#5c468d"/><stop offset="0.59" stop-color="#442e75"/><stop offset="0.61" stop-color="#362066"/><stop offset="0.63" stop-color="#311b61"/><stop offset="0.67" stop-color="#2a1155"/><stop offset="0.75" stop-color="#230446"/><stop offset="0.81" stop-color="#200041"/><stop offset="1" stop-color="#200041"/></linearGradient><linearGradient id="linear-gradient-3" x1="7041.85" y1="222.93" x2="7335.67" y2="222.93" gradientTransform="matrix(-1, 0, 0, 1, 7633.68, 0)" gradientUnits="userSpaceOnUse"><stop offset="0" stop-color="#58098a"/><stop offset="1" stop-color="#9e3bdb"/></linearGradient><radialGradient id="Radial_Gradient_1" cx="425.25" cy="255.43" r="111.68" gradientUnits="userSpaceOnUse"><stop offset="0" stop-color="#fff"/><stop offset="1"/></radialGradient><linearGradient id="linear-gradient-4" x1="7044.79" y1="222.93" x2="7332.73" y2="222.93" gradientTransform="matrix(-1, 0, 0, 1, 7633.68, 0)" gradientUnits="userSpaceOnUse"><stop offset="0" stop-color="#2f054a"/><stop offset="1" stop-color="#5e1d9a"/></linearGradient><linearGradient id="linear-gradient-5" x1="459.57" y1="149.66" x2="408.57" y2="404.64" gradientUnits="userSpaceOnUse"><stop offset="0" stop-color="#861eb2"/><stop offset="0.43" stop-color="#5f27bd"/><stop offset="0.9" stop-color="#3d065f"/></linearGradient><linearGradient id="linear-gradient-6" x1="9412.61" y1="-854.4" x2="9426.77" y2="-854.4" gradientTransform="matrix(-0.87, 0.5, -0.5, 1.44, 8285.32, -3254.05)" gradientUnits="userSpaceOnUse"><stop offset="0" stop-color="#3d065f"/><stop offset="1" stop-color="#5f27bd"/></linearGradient><linearGradient id="linear-gradient-7" x1="9412.61" y1="-854.4" x2="9426.77" y2="-854.4" gradientTransform="matrix(-0.87, 0.5, -0.5, 1.44, 8285.32, -3254.05)" xlink:href="#linear-gradient"/><linearGradient id="linear-gradient-8" x1="9397.19" y1="-812.44" x2="9391.33" y2="-801.51" gradientTransform="matrix(-0.87, 0.5, -0.5, 1.44, 8285.32, -3254.05)" gradientUnits="userSpaceOnUse"><stop offset="0.06" stop-color="#9f79b8"/><stop offset="0.26" stop-color="#a17bba"/><stop offset="0.36" stop-color="#a783bf"/><stop offset="0.43" stop-color="#b290c9"/><stop offset="0.49" stop-color="#c1a1d5"/><stop offset="0.51" stop-color="#c4a5d7"/><stop offset="0.52" stop-color="#cdb3dd"/><stop offset="0.53" stop-color="#dbc8e7"/><stop offset="0.55" stop-color="#efe7f4"/><stop offset="0.56" stop-color="#fff"/><stop offset="0.57" stop-color="#ece0f3"/><stop offset="0.58" stop-color="#ddc8ea"/><stop offset="0.59" stop-color="#d4b9e5"/><stop offset="0.6" stop-color="#d1b4e3"/><stop offset="0.66" stop-color="#b395d6"/><stop offset="0.72" stop-color="#9c7dcb"/><stop offset="0.77" stop-color="#8e6ec5"/><stop offset="0.81" stop-color="#8969c3"/><stop offset="1" stop-color="#b086cc"/></linearGradient><linearGradient id="linear-gradient-9" x1="9429.22" y1="-854.4" x2="9443.38" y2="-854.4" xlink:href="#linear-gradient-6"/><linearGradient id="linear-gradient-10" x1="9429.22" y1="-854.4" x2="9443.38" y2="-854.4" gradientTransform="matrix(-0.87, 0.5, -0.5, 1.44, 8285.32, -3254.05)" xlink:href="#linear-gradient"/><linearGradient id="linear-gradient-11" x1="9410.09" y1="-805.52" x2="9404.23" y2="-794.6" xlink:href="#linear-gradient-8"/><linearGradient id="linear-gradient-12" x1="361.62" y1="235.05" x2="419.37" y2="266.8" gradientUnits="userSpaceOnUse"><stop offset="0.04" stop-color="#ffa98c"/><stop offset="0.16" stop-color="#f89a90"/><stop offset="0.41" stop-color="#e4719c"/><stop offset="0.75" stop-color="#c430af"/><stop offset="0.98" stop-color="#ad00bd"/></linearGradient><radialGradient id="Radial_Gradient_1-2" cx="396.91" cy="256.16" r="22.95" xlink:href="#Radial_Gradient_1"/><linearGradient id="New_Gradient_Swatch_copy_25" x1="-3987.2" y1="2306.49" x2="-3905.42" y2="2306.49" gradientTransform="matrix(0.87, 0.5, -1, 0.58, 5922.54, 772.63)" gradientUnits="userSpaceOnUse"><stop offset="0" stop-color="#25054d"/><stop offset="1" stop-color="#45108a"/></linearGradient><linearGradient id="New_Gradient_Swatch_copy_9" x1="-3987.2" y1="2244.81" x2="-3879.23" y2="2244.81" gradientTransform="matrix(0.87, 0.5, -1, 0.58, 5922.54, 772.63)" gradientUnits="userSpaceOnUse"><stop offset="0.04" stop-color="#9f19ab"/><stop offset="0.24" stop-color="#ae25b1"/><stop offset="0.65" stop-color="#d744bf"/><stop offset="1" stop-color="#ff63ce"/></linearGradient><linearGradient id="New_Gradient_Swatch_copy_9-2" x1="-5920.05" y1="2359.2" x2="-5888.18" y2="2359.2" gradientTransform="matrix(0.87, 0.5, -1.5, 0.29, 9103.44, 2513.8)" xlink:href="#New_Gradient_Swatch_copy_9"/><linearGradient id="New_Gradient_Swatch_copy_9-3" x1="-3980.74" y1="2358.95" x2="-3950.11" y2="2358.95" gradientTransform="matrix(0.87, 0.5, -1, 0.58, 6211.81, 844.52)" xlink:href="#New_Gradient_Swatch_copy_9"/><linearGradient id="New_Gradient_Swatch_copy_10" x1="-3986.82" y1="2244.66" x2="-3951.02" y2="2244.66" gradientTransform="matrix(0.87, 0.5, -1, 0.58, 6211.81, 844.52)" gradientUnits="userSpaceOnUse"><stop offset="0.04" stop-color="#9d9eb3"/><stop offset="0.58" stop-color="#d4d1d8"/><stop offset="1" stop-color="#eeebf2"/></linearGradient><radialGradient id="Radial_Gradient_1-3" cx="217.8" cy="141.17" r="79.9" xlink:href="#Radial_Gradient_1"/><linearGradient id="New_Gradient_Swatch_copy_13" x1="-4020.92" y1="2289.84" x2="-3940.8" y2="2289.84" gradientTransform="matrix(0.87, 0.5, -1, 0.58, 5946.87, 782.92)" gradientUnits="userSpaceOnUse"><stop offset="0.04" stop-color="#6b24d6"/><stop offset="0.29" stop-color="#7733dc"/><stop offset="0.79" stop-color="#975ced"/><stop offset="1" stop-color="#a56ef4"/></linearGradient><radialGradient id="radial-gradient" cx="84.11" cy="108" r="10" gradientUnits="userSpaceOnUse"><stop offset="0.1" stop-color="#dc3daa"/><stop offset="0.11" stop-color="#bc3199"/><stop offset="0.15" stop-color="#5e0f66"/><stop offset="0.18" stop-color="#510d58"/><stop offset="0.24" stop-color="#38093d"/><stop offset="0.31" stop-color="#230626"/><stop offset="0.4" stop-color="#130315"/><stop offset="0.5" stop-color="#080109"/><stop offset="0.64" stop-color="#020002"/><stop offset="1"/></radialGradient><radialGradient id="radial-gradient-2" cx="84.11" cy="168.5" r="10" gradientUnits="userSpaceOnUse"><stop offset="0.1" stop-color="#fff"/><stop offset="0.13" stop-color="#c778ce"/><stop offset="0.15" stop-color="#9f19ab"/><stop offset="0.17" stop-color="#93179e"/><stop offset="0.21" stop-color="#711279"/><stop offset="0.26" stop-color="#520d58"/><stop offset="0.32" stop-color="#38093d"/><stop offset="0.38" stop-color="#240626"/><stop offset="0.46" stop-color="#130315"/><stop offset="0.55" stop-color="#080109"/><stop offset="0.67" stop-color="#020002"/><stop offset="1"/></radialGradient><linearGradient id="linear-gradient-13" x1="336.11" y1="92.72" x2="440.11" y2="164.72" gradientUnits="userSpaceOnUse"><stop offset="0" stop-color="#972a74"/><stop offset="0.04" stop-color="#8a266a"/><stop offset="0.19" stop-color="#601b4a"/><stop offset="0.35" stop-color="#3d112f"/><stop offset="0.51" stop-color="#230a1b"/><stop offset="0.67" stop-color="#0f040c"/><stop offset="0.83" stop-color="#040103"/><stop offset="1"/></linearGradient></defs><g class="cls-1"><g id="Layer_1" data-name="Layer 1"><path class="cls-2" d="M567.88,233.64a.5.5,0,0,1-.25-.93l1.72-1a.51.51,0,0,1,.69.18.49.49,0,0,1-.18.68l-1.72,1A.51.51,0,0,1,567.88,233.64Zm3.45-2a.5.5,0,0,1-.26-.93l1.73-1a.5.5,0,1,1,.5.86l-1.72,1A.47.47,0,0,1,571.33,231.61Zm3.44-2a.51.51,0,0,1-.43-.25.49.49,0,0,1,.18-.68l1.72-1a.51.51,0,0,1,.69.18.49.49,0,0,1-.18.68l-1.72,1A.48.48,0,0,1,574.77,229.58Zm3.45-2a.5.5,0,0,1-.25-.93l1.72-1a.49.49,0,0,1,.68.18.5.5,0,0,1-.17.68l-1.73,1A.45.45,0,0,1,578.22,227.55Zm3.45-2a.5.5,0,0,1-.26-.93l1.73-1a.5.5,0,1,1,.5.86l-1.72,1A.47.47,0,0,1,581.67,225.52Zm3.44-2a.51.51,0,0,1-.43-.25.49.49,0,0,1,.18-.68l1.72-1a.51.51,0,0,1,.69.18.49.49,0,0,1-.18.68l-1.72,1A.48.48,0,0,1,585.11,223.49Zm3.45-2a.5.5,0,0,1-.25-.93l1.72-1a.49.49,0,0,1,.68.18.5.5,0,0,1-.17.68l-1.73,1A.55.55,0,0,1,588.56,221.46Zm3.45-2a.5.5,0,0,1-.43-.25.48.48,0,0,1,.17-.68l1.73-1a.5.5,0,0,1,.5.86l-1.72,1A.59.59,0,0,1,592,219.43Zm3.44-2a.5.5,0,0,1-.25-.93l1.72-1a.51.51,0,0,1,.69.18.49.49,0,0,1-.18.68l-1.72,1A.59.59,0,0,1,595.45,217.4Zm3.45-2a.5.5,0,0,1-.26-.93l1.73-1a.49.49,0,0,1,.68.18.5.5,0,0,1-.17.68l-1.73,1A.55.55,0,0,1,598.9,215.37Zm3.45-2a.5.5,0,0,1-.26-.93l1.72-1a.51.51,0,0,1,.69.18.49.49,0,0,1-.18.68l-1.72,1A.59.59,0,0,1,602.35,213.34Zm3.44-2a.5.5,0,0,1-.25-.93l1.72-1a.51.51,0,0,1,.69.18.49.49,0,0,1-.18.68l-1.72,1A.59.59,0,0,1,605.79,211.31Zm3.45-2a.5.5,0,0,1-.43-.25.51.51,0,0,1,.17-.69l1.73-1a.5.5,0,0,1,.51.86l-1.73,1A.55.55,0,0,1,609.24,209.28Zm2.64-2.49a.5.5,0,0,1-.5-.5v-2a.5.5,0,1,1,1,0v2A.5.5,0,0,1,611.88,206.79Zm0-4a.5.5,0,0,1-.5-.5v-2a.5.5,0,1,1,1,0v2A.5.5,0,0,1,611.88,202.79Zm0-4a.5.5,0,0,1-.5-.5v-2a.5.5,0,1,1,1,0v2A.5.5,0,0,1,611.88,198.79Zm0-4a.5.5,0,0,1-.5-.5v-2a.5.5,0,1,1,1,0v2A.5.5,0,0,1,611.88,194.79Zm0-4a.5.5,0,0,1-.5-.5v-2a.5.5,0,1,1,1,0v2A.5.5,0,0,1,611.88,190.79Zm0-4a.5.5,0,0,1-.5-.5v-2a.5.5,0,1,1,1,0v2A.5.5,0,0,1,611.88,186.79Zm0-4a.5.5,0,0,1-.5-.5v-2a.5.5,0,1,1,1,0v2A.5.5,0,0,1,611.88,182.79Zm0-4a.5.5,0,0,1-.5-.5v-2a.5.5,0,1,1,1,0v2A.5.5,0,0,1,611.88,178.79Zm0-4a.5.5,0,0,1-.5-.5V174l-.94-.55a.5.5,0,0,1,.5-.86l1.19.69a.48.48,0,0,1,.25.43v.63A.5.5,0,0,1,611.88,174.79ZM609,172.47a.59.59,0,0,1-.25-.07l-1.73-1a.5.5,0,0,1,.5-.86l1.73,1a.51.51,0,0,1,.18.69A.5.5,0,0,1,609,172.47Zm-3.46-2a.47.47,0,0,1-.25-.07l-1.73-1a.5.5,0,0,1,.5-.86l1.73,1a.52.52,0,0,1,.19.69A.52.52,0,0,1,605.5,170.46Zm-3.46-2a.47.47,0,0,1-.25-.07l-1.73-1a.5.5,0,0,1,.51-.87l1.73,1a.5.5,0,0,1-.26.94Zm-3.45-2a.48.48,0,0,1-.26-.07l-1.72-1a.52.52,0,0,1-.19-.69.51.51,0,0,1,.69-.18l1.73,1a.49.49,0,0,1,.18.68A.51.51,0,0,1,598.59,166.44Zm-3.46-2a.45.45,0,0,1-.25-.07l-1.73-1a.51.51,0,0,1-.18-.69.49.49,0,0,1,.68-.18l1.73,1a.5.5,0,0,1-.25.93Zm-3.46-2a.45.45,0,0,1-.25-.07l-1.73-1a.51.51,0,0,1-.18-.69.49.49,0,0,1,.68-.18l1.73,1a.5.5,0,0,1-.25.93Zm-3.46-2a.45.45,0,0,1-.25-.07l-1.73-1a.51.51,0,0,1-.18-.69.49.49,0,0,1,.68-.18l1.73,1a.5.5,0,0,1-.25.93Zm-3.46-2a.47.47,0,0,1-.25-.07l-1.73-1a.5.5,0,0,1-.18-.68.49.49,0,0,1,.68-.19l1.73,1a.5.5,0,0,1-.25.93Zm-3.46-2a.47.47,0,0,1-.25-.07l-1.73-1a.5.5,0,0,1-.18-.68.49.49,0,0,1,.68-.19l1.73,1a.5.5,0,0,1-.25.93Zm-3.46-2a.47.47,0,0,1-.25-.07l-1.73-1a.5.5,0,0,1-.18-.68.49.49,0,0,1,.68-.19l1.73,1a.51.51,0,0,1,.19.68A.51.51,0,0,1,577.83,154.38Zm-3.45-2a.58.58,0,0,1-.26-.06l-1.73-1a.5.5,0,1,1,.51-.86l1.73,1a.5.5,0,0,1-.25.93Zm-3.46-2a.51.51,0,0,1-.25-.06l-1.73-1a.5.5,0,1,1,.5-.86l1.73,1a.5.5,0,0,1-.25.93Zm-3.46-2a.54.54,0,0,1-.25-.06l-1.73-1a.5.5,0,1,1,.5-.86l1.73,1a.5.5,0,0,1-.25.93Zm-3.46-2a.54.54,0,0,1-.25-.06l-1.73-1a.5.5,0,1,1,.5-.86l1.73,1a.51.51,0,0,1,.18.69A.49.49,0,0,1,564,146.34Zm-3.46-2a.55.55,0,0,1-.25-.07l-1.73-1a.5.5,0,0,1,.5-.86l1.73,1a.51.51,0,0,1,.18.69A.5.5,0,0,1,560.54,144.34Zm-3.46-2a.59.59,0,0,1-.25-.07l-1.73-1a.5.5,0,1,1,.5-.86l1.73,1a.51.51,0,0,1,.18.69A.5.5,0,0,1,557.08,142.33Zm-3.46-2a.47.47,0,0,1-.25-.07l-1.73-1a.5.5,0,1,1,.5-.86l1.73,1a.51.51,0,0,1,.18.69A.5.5,0,0,1,553.62,140.32Zm-3.46-2a.47.47,0,0,1-.25-.07l-1.73-1a.5.5,0,0,1,.51-.87l1.73,1a.5.5,0,0,1,.18.68A.51.51,0,0,1,550.16,138.31Z" transform="translate(-289.28 -71.89)"/><path class="cls-2" d="M308.22,238.1l-1.72-1a.49.49,0,0,1-.18-.68.51.51,0,0,1,.69-.18l1.72,1a.49.49,0,0,1,.18.68.51.51,0,0,1-.43.25A.59.59,0,0,1,308.22,238.1Zm-3.44-2-1.73-1a.5.5,0,0,1-.17-.68.49.49,0,0,1,.68-.18l1.72,1a.51.51,0,0,1,.18.69.5.5,0,0,1-.43.25A.55.55,0,0,1,304.78,236.07Zm-3.45-2-1.72-1a.5.5,0,0,1,.5-.86l1.73,1a.51.51,0,0,1,.17.69.5.5,0,0,1-.43.25A.59.59,0,0,1,301.33,234Zm-3.45-2-1.72-1a.5.5,0,0,1-.18-.68.51.51,0,0,1,.69-.18l1.72,1a.5.5,0,0,1-.25.94A.59.59,0,0,1,297.88,232Zm-3.44-2-1.73-1a.5.5,0,0,1-.17-.68.49.49,0,0,1,.68-.18l1.72,1a.51.51,0,0,1,.18.69.49.49,0,0,1-.43.24A.54.54,0,0,1,294.44,230Zm-2.89-2.92v-2a.5.5,0,0,1,.5-.5.5.5,0,0,1,.5.5v2a.51.51,0,0,1-.5.5A.5.5,0,0,1,291.55,227.06Zm0-4v-2a.5.5,0,0,1,.5-.5.5.5,0,0,1,.5.5v2a.51.51,0,0,1-.5.5A.5.5,0,0,1,291.55,223.06Zm0-4v-2a.5.5,0,0,1,.5-.5.5.5,0,0,1,.5.5v2a.51.51,0,0,1-.5.5A.5.5,0,0,1,291.55,219.06Zm0-4v-2a.5.5,0,0,1,.5-.5.5.5,0,0,1,.5.5v2a.51.51,0,0,1-.5.5A.5.5,0,0,1,291.55,215.06Zm0-4v-2a.5.5,0,0,1,.5-.5.5.5,0,0,1,.5.5v2a.51.51,0,0,1-.5.5A.5.5,0,0,1,291.55,211.06Zm0-4v-2a.5.5,0,0,1,.5-.5.5.5,0,0,1,.5.5v2a.51.51,0,0,1-.5.5A.5.5,0,0,1,291.55,207.06Zm0-4v-2.63a.48.48,0,0,1,.25-.43l1.19-.69a.5.5,0,1,1,.5.86l-.94.55v2.34a.51.51,0,0,1-.5.5A.5.5,0,0,1,291.55,203.06Zm3-4.07a.52.52,0,0,1,.19-.69l1.73-1a.5.5,0,1,1,.5.86l-1.73,1a.59.59,0,0,1-.25.07A.51.51,0,0,1,294.53,199Zm3.46-2a.51.51,0,0,1,.18-.69l1.73-1a.51.51,0,0,1,.69.18.49.49,0,0,1-.18.68l-1.73,1a.59.59,0,0,1-.25.07A.51.51,0,0,1,298,197Zm3.46-2a.51.51,0,0,1,.18-.69l1.73-1a.51.51,0,0,1,.69.18.5.5,0,0,1-.18.68l-1.73,1a.48.48,0,0,1-.26.07A.5.5,0,0,1,301.45,195Z" transform="translate(-289.28 -71.89)"/><g class="cls-3"><path class="cls-4" d="M521,242.73l-27.55,15.91-27.49-15.88,27.54-15.9L521,242.73Zm2,0-29.55-17.06-29.6,17.09,29.55,17.06L523,242.73Z" transform="translate(-289.28 -71.89)"/><polygon class="cls-4" points="199.98 190.2 170.54 173.21 171.74 172.52 201.18 189.51 199.98 190.2"/><polygon class="cls-4" points="196.57 192.18 167.13 175.18 168.32 174.49 197.76 191.49 196.57 192.18"/><polygon class="cls-4" points="179.35 186.24 163.66 177.18 164.85 176.49 180.55 185.55 179.35 186.24"/><path class="cls-4" d="M559.1,264.75l-27.55,15.91-27.49-15.87,27.55-15.91,27.49,15.87Zm2.06,0L531.6,247.69,502,264.78l29.55,17.06,29.6-17.08Z" transform="translate(-289.28 -71.89)"/><polygon class="cls-4" points="238.13 212.23 208.69 195.23 209.88 194.54 239.32 211.54 238.13 212.23"/><polygon class="cls-4" points="234.71 214.2 205.28 197.2 206.47 196.51 235.91 213.51 234.71 214.2"/><polygon class="cls-4" points="217.5 208.27 201.8 199.21 203 198.52 218.69 207.58 217.5 208.27"/><path class="cls-4" d="M469.73,272.31l-27.55,15.9-27.49-15.87,27.55-15.91,27.49,15.88Zm2.06,0-29.56-17.06-29.6,17.08,29.56,17.07,29.6-17.09Z" transform="translate(-289.28 -71.89)"/><polygon class="cls-4" points="148.76 219.78 119.32 202.78 120.51 202.09 149.95 219.09 148.76 219.78"/><polygon class="cls-4" points="145.34 221.75 115.9 204.75 117.1 204.06 146.54 221.06 145.34 221.75"/><polygon class="cls-4" points="128.12 215.82 112.43 206.76 113.63 206.07 129.32 215.13 128.12 215.82"/><path class="cls-4" d="M507.88,294.33l-27.55,15.9-27.49-15.87,27.54-15.9,27.5,15.87Zm2.05,0-29.55-17.06-29.6,17.09,29.55,17.06,29.6-17.09Z" transform="translate(-289.28 -71.89)"/><polygon class="cls-4" points="186.9 241.8 157.46 224.81 158.66 224.12 188.1 241.11 186.9 241.8"/><polygon class="cls-4" points="183.49 243.77 154.05 226.78 155.24 226.09 184.68 243.08 183.49 243.77"/><polygon class="cls-4" points="166.27 237.84 150.58 228.78 151.77 228.09 167.47 237.15 166.27 237.84"/><path class="cls-4" d="M418.28,302l-27.55,15.91L363.24,302l27.54-15.9L418.28,302Zm2.05,0L390.78,285,361.18,302l29.55,17.06L420.33,302Z" transform="translate(-289.28 -71.89)"/><polygon class="cls-4" points="97.3 249.49 67.86 232.49 69.06 231.8 98.5 248.8 97.3 249.49"/><polygon class="cls-4" points="93.89 251.46 64.45 234.46 65.64 233.77 95.08 250.77 93.89 251.46"/><polygon class="cls-4" points="76.67 245.53 60.98 236.47 62.17 235.78 77.87 244.84 76.67 245.53"/><path class="cls-4" d="M456.42,324l-27.55,15.9-27.49-15.87,27.55-15.91L456.42,324Zm2.06,0L428.92,307l-29.59,17.08,29.55,17.07L458.48,324Z" transform="translate(-289.28 -71.89)"/><polygon class="cls-4" points="135.45 271.51 106.01 254.51 107.2 253.82 136.65 270.82 135.45 271.51"/><polygon class="cls-4" points="132.03 273.48 102.59 256.48 103.79 255.79 133.23 272.79 132.03 273.48"/><polygon class="cls-4" points="114.82 267.55 99.12 258.49 100.32 257.8 116.01 266.86 114.82 267.55"/><path class="cls-4" d="M508.57,213.12l10.07,5.82a1.65,1.65,0,0,0,1.5,0,.46.46,0,0,0,0-.87l-10.06-5.81a1.65,1.65,0,0,0-1.5,0C508.15,212.5,508.16,212.88,508.57,213.12Zm9,6.41-10.07-5.81a1.68,1.68,0,0,0-1.5,0,.46.46,0,0,0,0,.87l10.06,5.81a1.68,1.68,0,0,0,1.5,0A.46.46,0,0,0,517.61,219.53ZM515.09,221,505,215.17a1.65,1.65,0,0,0-1.5,0,.46.46,0,0,0,0,.87l10.07,5.81a1.65,1.65,0,0,0,1.5,0A.45.45,0,0,0,515.09,221Z" transform="translate(-289.28 -71.89)"/><path class="cls-4" d="M404.36,357.73,332.42,316.2c-4.73-2.74-4.76-7.17-.05-9.89l169.39-97.8c4.71-2.72,12.39-2.7,17.13,0l71.93,41.54c4.74,2.73,4.77,7.17.06,9.88l-169.39,97.8C416.78,360.48,409.1,360.47,404.36,357.73ZM518.2,208.94c-4.35-2.52-11.42-2.53-15.75,0L333.06,306.7c-4.33,2.5-4.31,6.59.05,9.1L405,357.34c4.36,2.51,11.43,2.52,15.76,0l169.39-97.79c4.33-2.5,4.31-6.58-.05-9.1Z" transform="translate(-289.28 -71.89)"/><path class="cls-4" d="M577.38,255c0,.31-.44.56-1,.56s-1-.26-1-.56.43-.56,1-.56S577.37,254.72,577.38,255Z" transform="translate(-289.28 -71.89)"/><path class="cls-4" d="M575.9,250.55h-.16v.55h.16c4,0,7.28,1.9,7.29,4.21v0h1v0C584.15,252.7,580.44,250.56,575.9,250.55Z" transform="translate(-289.28 -71.89)"/><path class="cls-4" d="M575.91,252.79h-.16v.56h.16c1.87,0,3.4.88,3.41,2,0,0,0,0,0,0h1v0C580.28,253.93,578.31,252.79,575.91,252.79Z" transform="translate(-289.28 -71.89)"/><path class="cls-4" d="M575.9,251.67h-.15v.56h.16c2.94,0,5.33,1.39,5.34,3.09h1v0C582.21,253.31,579.38,251.68,575.9,251.67Z" transform="translate(-289.28 -71.89)"/><polygon class="cls-4" points="267.92 172.84 238.88 156.07 240.76 154.99 269.8 171.75 267.92 172.84"/></g><g class="cls-5"><path class="cls-6" d="M396.41,344.41a26.39,26.39,0,0,0,13.15-3.17l183.27-105.5c4.8-2.76,7.55-7.15,7.55-12,0-5.34-3.31-10.31-9.09-13.65l-79-45.64a32.39,32.39,0,0,0-16-4.06,26.4,26.4,0,0,0-13.16,3.17L299.84,269c-4.8,2.77-7.55,7.16-7.55,12,0,5.34,3.31,10.31,9.09,13.64l79.05,45.65A32.4,32.4,0,0,0,396.41,344.41Z" transform="translate(-289.28 -71.89)"/><path class="cls-7" d="M483.26,163.86,300,269.35c-4.6,2.66-7.21,6.84-7.19,11.47,0,5.06,3.19,9.79,8.74,13L377,337.4c.12.07,3.81,2.18,4,2.23a31.53,31.53,0,0,0,16.07,3.6,28.19,28.19,0,0,0,13-3.47L592.28,234.85c4.61-2.66,7.22-6.84,7.2-11.47,0-5.06-3.19-9.79-8.74-13L512.16,165a32.56,32.56,0,0,0-5.82-2.59,33.76,33.76,0,0,0-10-1.63A25.72,25.72,0,0,0,483.26,163.86Z" transform="translate(-289.28 -71.89)"/><path class="cls-8" d="M483.41,164.17,300.13,269.67c-4.42,2.55-6.89,6.52-6.84,10.91,0,4.78,3.07,9.28,8.38,12.34l75.86,43.8c.24.14,3.71,2.1,4,2.19a30.67,30.67,0,0,0,16.18,3.14c4.1,0,9.84-2.06,12.78-3.76L591.73,234c4.42-2.55,6.89-6.53,6.85-10.92-.05-4.78-3.08-9.27-8.39-12.33l-78.11-45.1a37.14,37.14,0,0,0-5.75-2.63,33.85,33.85,0,0,0-9.9-1.76A25.35,25.35,0,0,0,483.41,164.17Z" transform="translate(-289.28 -71.89)"/><path class="cls-9" d="M483.55,164.49,300.28,270c-4.23,2.44-6.56,6.22-6.49,10.37.06,4.5,2.95,8.75,8,11.68L378,336c.36.21,3.61,2,4,2.15a29.72,29.72,0,0,0,16.28,2.69c3.65,0,10-2.54,12.6-4.05L591.18,233.07c4.24-2.44,6.56-6.22,6.5-10.36-.07-4.5-3-8.76-8-11.69L512,166.2a42.49,42.49,0,0,0-5.7-2.67,33.47,33.47,0,0,0-9.8-1.88A24.65,24.65,0,0,0,483.55,164.49Z" transform="translate(-289.28 -71.89)"/><path class="cls-10" d="M483.7,164.81,300.43,270.3c-4.05,2.33-6.24,5.9-6.15,9.81.09,4.22,2.84,8.23,7.69,11l76.56,44.2c.49.28,3.51,2,4.08,2.12A28.78,28.78,0,0,0,399,339.69c3.19,0,10.13-3,12.41-4.35L590.63,232.18c4-2.34,6.24-5.91,6.15-9.81-.09-4.22-2.84-8.24-7.69-11l-77.16-44.55a51.5,51.5,0,0,0-5.64-2.72,33.76,33.76,0,0,0-9.7-2A24.21,24.21,0,0,0,483.7,164.81Z" transform="translate(-289.28 -71.89)"/><path class="cls-11" d="M483.85,165.12,300.57,270.61c-3.85,2.23-5.9,5.6-5.79,9.26.12,3.94,2.72,7.72,7.33,10.38L379,334.66a45.37,45.37,0,0,0,4.12,2.08,27.83,27.83,0,0,0,16.49,1.77c2.73,0,10.26-3.51,12.22-4.64L590.08,231.29c3.86-2.23,5.91-5.6,5.79-9.26-.11-3.94-2.72-7.72-7.33-10.38l-76.69-44.28c-1-.56-4.44-2.34-5.57-2.75a33.11,33.11,0,0,0-9.61-2.12A23.66,23.66,0,0,0,483.85,165.12Z" transform="translate(-289.28 -71.89)"/><path class="cls-12" d="M484,165.44,300.72,270.93c-3.66,2.12-5.57,5.28-5.44,8.7.14,3.67,2.6,7.2,7,9.73L379.54,334a36.36,36.36,0,0,0,4.15,2,27,27,0,0,0,16.59,1.31c2.28,0,10.41-4,12-4.93l177.21-102c3.67-2.12,5.58-5.29,5.44-8.71-.13-3.66-2.6-7.2-7-9.72l-76.22-44c-.82-.47-4.57-2.44-5.51-2.79a32.81,32.81,0,0,0-9.51-2.24C492,162.64,487.38,163.48,484,165.44Z" transform="translate(-289.28 -71.89)"/><path class="cls-13" d="M484.14,165.75,300.87,271.25c-3.48,2-5.25,5-5.09,8.15.16,3.38,2.49,6.67,6.63,9.06L380,333.29a32.48,32.48,0,0,0,4.2,2c5.37,2.1,11.83,2.45,16.69.85,1.82,0,10.55-4.47,11.85-5.23L589,229.5c3.48-2,5.25-5,5.09-8.15-.16-3.38-2.48-6.67-6.63-9.07L511.7,168.55c-.66-.38-4.71-2.55-5.45-2.83a32.91,32.91,0,0,0-9.42-2.37C492.1,163,487.5,163.81,484.14,165.75Z" transform="translate(-289.28 -71.89)"/><path class="cls-14" d="M484.29,166.07,301,271.56c-3.28,1.9-4.91,4.66-4.73,7.6.18,3.1,2.37,6.16,6.27,8.41l78,45a28.34,28.34,0,0,0,4.24,2c5.49,2,12.06,2.21,16.79.39,1.37,0,10.7-5,11.68-5.52L588.43,228.61c3.29-1.9,4.92-4.66,4.74-7.6-.18-3.1-2.37-6.15-6.28-8.41l-75.27-43.46c-.49-.28-4.83-2.65-5.39-2.88a32.52,32.52,0,0,0-9.32-2.48C492.22,163.39,487.61,164.15,484.29,166.07Z" transform="translate(-289.28 -71.89)"/><path class="cls-15" d="M484.43,166.38,301.16,271.88c-3.1,1.79-4.58,4.34-4.38,7s2.25,5.64,5.92,7.76L381,331.91a25.68,25.68,0,0,0,4.29,1.95c5.6,1.95,12.28,2,16.89-.07.91,0,10.83-5.44,11.49-5.81L587.88,227.72c3.1-1.79,4.59-4.35,4.39-7s-2.25-5.64-5.93-7.76l-74.8-43.19c-.33-.19-5-2.77-5.32-2.92A32.83,32.83,0,0,0,497,164.2C492.34,163.77,487.72,164.48,484.43,166.38Z" transform="translate(-289.28 -71.89)"/><path class="cls-16" d="M484.58,166.7,301.31,272.19c-2.91,1.68-4.26,4-4,6.49s2.14,5.12,5.58,7.11l78.7,45.44a23.39,23.39,0,0,0,4.32,1.91c5.72,1.87,12.52,1.75,17-.53.46,0,11-5.92,11.31-6.11l173.16-99.67c2.91-1.68,4.26-4,4-6.49s-2.13-5.12-5.58-7.11l-74.33-42.91c-.16-.1-5.07-2.88-5.26-3a32.13,32.13,0,0,0-9.13-2.73C492.46,164.14,487.84,164.82,484.58,166.7Z" transform="translate(-289.28 -71.89)"/><path d="M403.51,331.43,586.78,225.94c5.5-3.18,4.82-8.73-1.54-12.39l-79.05-45.64c-6.35-3.67-16-4.07-21.46-.89L301.45,272.51c-5.5,3.17-4.81,8.72,1.55,12.39l79.05,45.64C388.4,334.21,398,334.61,403.51,331.43Z" transform="translate(-289.28 -71.89)"/></g><path class="cls-17" d="M377.54,312.1l-73.9-42.67c-8.34-4.82-7.3-13.23,2.33-18.78L479.76,150.31c9.63-5.56,24.19-6.16,32.53-1.35l73.91,42.67c8.33,4.81,7.29,13.22-2.34,18.78L410.07,310.75C400.44,316.31,385.88,316.91,377.54,312.1Z" transform="translate(-289.28 -71.89)"/><path class="cls-18" d="M377.54,310.83l-73.9-42.67c-3.73-2.15-5.58-5-5.63-8,0-.27,0-6.06,0-6.33.3-3.48,3-1.56,7.93-4.42L479.76,149c9.63-5.56,24.19-6.16,32.53-1.35l73.91,42.67c3.72,2.15,5.57-1.63,5.63,1.38,0,.26,0,7.17,0,7.44-.3,3.49-3,7.1-7.94,10L410.07,309.48C400.44,315,385.88,315.64,377.54,310.83Z" transform="translate(-289.28 -71.89)"/><path class="cls-19" d="M377.54,304.5l-73.9-42.67c-8.34-4.82-7.3-13.22,2.33-18.78L479.76,142.71c9.63-5.56,24.19-6.16,32.53-1.35L586.2,184c8.33,4.82,7.29,13.22-2.34,18.78L410.07,303.15C400.44,308.71,385.88,309.31,377.54,304.5Z" transform="translate(-289.28 -71.89)"/><path class="cls-20" d="M303.64,261l73.9,42.67c8.34,4.81,22.9,4.21,32.53-1.35L583.86,202c5.07-2.93,7.76-6.64,7.95-10.21.21,3.82-2.48,7.89-7.95,11L410.07,303.15c-9.63,5.56-24.19,6.16-32.53,1.35l-73.9-42.67c-3.95-2.28-5.79-5.37-5.62-8.58C298.18,256.16,300,258.91,303.64,261Z" transform="translate(-289.28 -71.89)"/><path class="cls-21" d="M307.93,244.3l174-100.46c8.44-4.88,21.2-5.4,28.51-1.19L584,185.1c7.3,4.22,6.39,11.59-2.05,16.46L407.91,302c-8.44,4.87-21.21,5.4-28.52,1.18l-73.51-42.44C298.57,256.54,299.49,249.17,307.93,244.3Z" transform="translate(-289.28 -71.89)"/><path class="cls-22" d="M311.3,245.74l173.13-100c7.07-4.07,17.75-4.52,23.87-1l71.95,41.54c6.12,3.54,5.35,9.71-1.71,13.78l-173.14,100c-7.06,4.08-17.75,4.53-23.87,1l-71.95-41.54C303.47,256,304.23,249.82,311.3,245.74Z" transform="translate(-289.28 -71.89)"/><path class="cls-23" d="M507.67,146.12c-5.76-3.33-15.08-3.35-20.81,0l-175,101.06c-5.73,3.31-5.7,8.69.07,12l70.28,40.58c5.77,3.33,15.08,3.34,20.81,0L578,198.71c5.73-3.3,5.7-8.68-.06-12Z" transform="translate(-289.28 -71.89)"/><path class="cls-24" d="M392.63,300.82a19.59,19.59,0,0,0,9.63-2.28l175-101.06c2.3-1.33,3.56-3,3.56-4.74s-1.29-3.46-3.63-4.81L507,147.35a19.88,19.88,0,0,0-9.75-2.31,19.63,19.63,0,0,0-9.64,2.28l-175,101.06c-2.3,1.33-3.57,3-3.57,4.74s1.29,3.46,3.63,4.81l70.28,40.58A19.89,19.89,0,0,0,392.63,300.82Z" transform="translate(-289.28 -71.89)"/><path class="cls-25" d="M551,227.31l8.06-4.65a4.38,4.38,0,0,0,1.82-3.48h0c0-1.34-.82-2-1.82-1.38L551,222.45a4.35,4.35,0,0,0-1.82,3.48h0C549.22,227.27,550,227.89,551,227.31Z" transform="translate(-289.28 -71.89)"/><path class="cls-26" d="M551,227.31l8.06-4.65a4.38,4.38,0,0,0,1.82-3.48h0c0-1.34-.82-2-1.82-1.38L551,222.45a4.35,4.35,0,0,0-1.82,3.48h0C549.22,227.27,550,227.89,551,227.31Z" transform="translate(-289.28 -71.89)"/><path class="cls-27" d="M550.32,227.05a1,1,0,0,0,.48-.15l8.06-4.65a3.9,3.9,0,0,0,1.58-3.07c0-.52-.16-1.12-.62-1.12a1,1,0,0,0-.49.15l-8.05,4.66a3.89,3.89,0,0,0-1.59,3.06C549.69,226.45,549.86,227.05,550.32,227.05Z" transform="translate(-289.28 -71.89)"/><path class="cls-28" d="M536.66,235.61l8.05-4.65a4.35,4.35,0,0,0,1.82-3.48h0c0-1.34-.81-1.95-1.82-1.37l-8.05,4.65a4.35,4.35,0,0,0-1.82,3.48h0C534.84,235.58,535.65,236.19,536.66,235.61Z" transform="translate(-289.28 -71.89)"/><path class="cls-29" d="M536.66,235.61l8.05-4.65a4.35,4.35,0,0,0,1.82-3.48h0c0-1.34-.81-1.95-1.82-1.37l-8.05,4.65a4.35,4.35,0,0,0-1.82,3.48h0C534.84,235.58,535.65,236.19,536.66,235.61Z" transform="translate(-289.28 -71.89)"/><path class="cls-30" d="M535.93,235.36a1,1,0,0,0,.49-.16l8.06-4.65a3.93,3.93,0,0,0,1.58-3.07c0-.51-.16-1.12-.62-1.12a1,1,0,0,0-.49.16l-8.06,4.65a3.92,3.92,0,0,0-1.58,3.07C535.31,234.75,535.47,235.36,535.93,235.36Z" transform="translate(-289.28 -71.89)"/><path class="cls-31" d="M466.45,270.74l117.41-68.09c5-2.86,7.64-6.47,7.94-10,0-.12,0-1.53,0-3.09,0,0,0,7.25,0,7.52-.3,3.49-3,7.1-7.94,10Z" transform="translate(-289.28 -71.89)"/><path d="M333.83,285.08l13.23,7.64h0a7.85,7.85,0,0,0-3.28-6.27l-6.66-3.85c-1.82-1.05-3.29.06-3.29,2.48Z" transform="translate(-289.28 -71.89)"/><path class="cls-32" d="M338.62,250a3.64,3.64,0,0,1,1.85.52c1.43.83,1,1.59,0,2.22.12.13,0,.32-.21.47a1,1,0,0,1-.46.09,1.83,1.83,0,0,1-.5-.07,6.8,6.8,0,0,1-1.49.16c-.38,0-.7.18-.69.4a1.5,1.5,0,0,0,.55,1c.45.43.36,1-.28,1.37l-1.11.64a.76.76,0,0,1-.38.09.87.87,0,0,1-.4-.09l-5.93-3.43a.24.24,0,0,1,0-.45l1.11-.64A2.81,2.81,0,0,1,332,252a3.05,3.05,0,0,1,1,.16,5.74,5.74,0,0,0,1.81.32h0c.38,0,.67-.18.67-.4a1.52,1.52,0,0,1,.28-.86.33.33,0,0,1,0-.55,1.24,1.24,0,0,1,.59-.16.85.85,0,0,1,.23,0,4.35,4.35,0,0,1,2-.54Zm0-.8h0a4.9,4.9,0,0,0-2.13.52h-.09a2.09,2.09,0,0,0-1,.26,1.1,1.1,0,0,0-.55.82,1.12,1.12,0,0,0,0,.41,2.9,2.9,0,0,0-.14.48,4.92,4.92,0,0,1-1.47-.27,3.86,3.86,0,0,0-1.28-.21,3.52,3.52,0,0,0-1.75.43l-1.11.64a1,1,0,0,0,0,1.83l5.93,3.43a1.64,1.64,0,0,0,.8.2,1.53,1.53,0,0,0,.78-.2l1.11-.64a1.77,1.77,0,0,0,.95-1.31,1.55,1.55,0,0,0-.53-1.33l-.07-.07a6.85,6.85,0,0,0,1.14-.13,3.05,3.05,0,0,0,.52,0,1.66,1.66,0,0,0,.86-.2,1.28,1.28,0,0,0,.62-.75,2.06,2.06,0,0,0,.93-1.59,2.15,2.15,0,0,0-1.3-1.73,4.43,4.43,0,0,0-2.25-.63Z" transform="translate(-289.28 -71.89)"/><path class="cls-32" d="M391.2,282.17l.78.73.62,0c.22,0,.44,0,.65,0l.78-.74a8.82,8.82,0,0,1,1.39.34l-.34.83.49.24a4.27,4.27,0,0,1,.41.29l1.45-.2a2.67,2.67,0,0,1,.58.8l-1.27.45a1.3,1.3,0,0,1,0,.73l1.27.46a2.85,2.85,0,0,1-.56.8L396,286.7a2.56,2.56,0,0,1-.42.28,3.58,3.58,0,0,1-.48.24l.35.84a7.83,7.83,0,0,1-1.39.33l-.78-.74-.62,0c-.22,0-.44,0-.65,0l-.78.73a7.83,7.83,0,0,1-1.39-.33l.34-.84a4.44,4.44,0,0,1-.49-.24,4.21,4.21,0,0,1-.41-.28l-1.45.2a2.94,2.94,0,0,1-.58-.8l1.27-.45a1.33,1.33,0,0,1,0-.74l-1.27-.45a2.59,2.59,0,0,1,.56-.8l1.45.2c.13-.09.26-.19.42-.28s.31-.16.48-.23l-.35-.84a7.83,7.83,0,0,1,1.39-.33Zm1.44,4.07a2.39,2.39,0,0,0,1.18-.28c.65-.37.64-1,0-1.36a2.44,2.44,0,0,0-1.19-.29,2.51,2.51,0,0,0-1.18.28.73.73,0,0,0,0,1.37,2.43,2.43,0,0,0,1.19.28Zm-1.44-4.87h-.12a8.67,8.67,0,0,0-1.52.36.82.82,0,0,0-.48.43.83.83,0,0,0,0,.64l.07.15-.08.06-1.13-.16h-.12a.79.79,0,0,0-.56.23,3.4,3.4,0,0,0-.73,1,.78.78,0,0,0,0,.65.85.85,0,0,0,.47.44l.18.06-.17.06a.82.82,0,0,0-.47.44.78.78,0,0,0,0,.65,3.62,3.62,0,0,0,.74,1,.79.79,0,0,0,.56.23h.11l1.13-.15.1.06-.07.16a.81.81,0,0,0,0,.63.83.83,0,0,0,.47.43,9,9,0,0,0,1.53.36h.12a.77.77,0,0,0,.55-.22l.52-.49H393l.53.5a.77.77,0,0,0,.54.22h.12a8.67,8.67,0,0,0,1.52-.36.82.82,0,0,0,.48-.43.84.84,0,0,0,0-.64l-.07-.16.08,0,1.13.16h.12a.8.8,0,0,0,.56-.24,3.17,3.17,0,0,0,.73-1,.75.75,0,0,0,0-.64.85.85,0,0,0-.47-.44l-.18-.06.17-.06a.8.8,0,0,0,.47-.45.75.75,0,0,0,0-.64,3.62,3.62,0,0,0-.74-1,.79.79,0,0,0-.56-.23h-.11l-1.13.15-.1-.06.07-.16a.81.81,0,0,0,0-.63.83.83,0,0,0-.47-.43,10.07,10.07,0,0,0-1.53-.37H394a.81.81,0,0,0-.55.21l-.52.49h-.69l-.53-.49a.77.77,0,0,0-.54-.22Zm.66,3.9a1.71,1.71,0,0,1,.76-.16,1.75,1.75,0,0,1,.77.17,1.63,1.63,0,0,1-.75.16,1.7,1.7,0,0,1-.78-.17Z" transform="translate(-289.28 -71.89)"/><path class="cls-32" d="M350.24,261.76l1.81,1.05-3.28,1.89-1.81-1,3.28-1.9Zm4.83.38,1.81,1.05-5.36,3.1-1.82-1.05,5.37-3.1Zm4.83.38,1.82,1.05-7.46,4.3-1.81-1,7.45-4.31ZM350.24,261a.8.8,0,0,0-.4.11L346.56,263a.81.81,0,0,0-.4.7.79.79,0,0,0,.4.69l1.81,1a.71.71,0,0,0,.4.11.47.47,0,0,0,.17,0,.81.81,0,0,0,.36.45l1.82,1.05a.8.8,0,0,0,.4.11l.17,0a.77.77,0,0,0,.36.45l1.81,1a.78.78,0,0,0,.8,0l7.46-4.3a.82.82,0,0,0,.4-.69.83.83,0,0,0-.4-.7l-1.82-1a.8.8,0,0,0-.4-.11.86.86,0,0,0-.4.11l-1.87,1.08a.79.79,0,0,0-.35-.42l-1.81-1a.8.8,0,0,0-.4-.11.83.83,0,0,0-.4.11l-1.87,1.08a.79.79,0,0,0-.35-.42l-1.81-1a.8.8,0,0,0-.4-.11Z" transform="translate(-289.28 -71.89)"/><path class="cls-32" d="M373.24,271a4.2,4.2,0,0,1,2,.48c.78.45,1,1.09.71,1.66a4.8,4.8,0,0,1,.85-.07,4.16,4.16,0,0,1,2,.48c1.12.65,1.13,1.69,0,2.33a9.75,9.75,0,0,1-4.24.66,39.27,39.27,0,0,1-4.12-.24s-1.31-3.65.72-4.83a4.23,4.23,0,0,1,2-.47Zm0-.8v0a4.88,4.88,0,0,0-2.41.58c-2.58,1.49-1.14,5.61-1.07,5.79a.77.77,0,0,0,.65.52,39.45,39.45,0,0,0,4.22.25,10,10,0,0,0,4.64-.76,2,2,0,0,0,0-3.72,4.77,4.77,0,0,0-2.38-.59,2.34,2.34,0,0,0-1.2-1.48,5,5,0,0,0-2.43-.59Z" transform="translate(-289.28 -71.89)"/><path class="cls-33" d="M409,276.3a16,16,0,0,1-7.95-1.89l-18.87-10.9-18.87-10.89a7.38,7.38,0,0,1-4.07-6.32c0-2.85,1.87-5.57,5.13-7.45a20.41,20.41,0,0,1,9.91-2.5,16,16,0,0,1,7.95,1.88l18.87,10.9L420,260a7.4,7.4,0,0,1,4.07,6.32c0,2.85-1.87,5.57-5.14,7.45A20.35,20.35,0,0,1,409,276.3Z" transform="translate(-289.28 -71.89)"/><path class="cls-34" d="M365,239.28h0a19.59,19.59,0,0,1,9.64-2.43,16.15,16.15,0,0,1,6.82,1.38c.3.14.64.31.91.47l18.38,10.61,1.54.89,16.84,9.72a9.15,9.15,0,0,1,3.3,3.2,6.37,6.37,0,0,1,.81,2.84c.09,2.75-1.68,5.41-4.89,7.27h0a19.76,19.76,0,0,1-9.65,2.42,16.15,16.15,0,0,1-6.82-1.38,8.66,8.66,0,0,1-.91-.47L382.6,263.19l-1.54-.89-16.83-9.72a9.18,9.18,0,0,1-3.31-3.2,6.37,6.37,0,0,1-.81-2.84C360,243.8,361.79,241.13,365,239.28Z" transform="translate(-289.28 -71.89)"/><path class="cls-35" d="M365.61,239.7h0a19.23,19.23,0,0,1,9.39-2.35,15.78,15.78,0,0,1,6.63,1.36l.88.46L400.4,249.5l1.49.87,16.39,9.46a9.78,9.78,0,0,1,3.26,3,6.4,6.4,0,0,1,.9,2.7c.18,2.65-1.5,5.27-4.66,7.09h0A19.19,19.19,0,0,1,408.4,275a15.67,15.67,0,0,1-6.64-1.36c-.26-.12-.63-.32-.88-.46L383,262.86,381.5,262l-16.39-9.46a9.91,9.91,0,0,1-3.26-3,6.25,6.25,0,0,1-.89-2.7C360.77,244.14,362.45,241.53,365.61,239.7Z" transform="translate(-289.28 -71.89)"/><path class="cls-36" d="M366.21,240.13h0a18.73,18.73,0,0,1,9.13-2.28,15.38,15.38,0,0,1,6.44,1.34c.24.12.63.33.85.46l17.4,10,1.46.84,15.93,9.2a10.79,10.79,0,0,1,3.22,2.89,6.34,6.34,0,0,1,1,2.57c.28,2.55-1.3,5.11-4.41,6.9h0a18.51,18.51,0,0,1-9.13,2.28,15.22,15.22,0,0,1-6.44-1.34c-.24-.11-.63-.32-.85-.45l-17.4-10-1.46-.85L366,252.5a11.13,11.13,0,0,1-3.23-2.9,6.43,6.43,0,0,1-1-2.56C361.52,244.49,363.1,241.93,366.21,240.13Z" transform="translate(-289.28 -71.89)"/><path class="cls-37" d="M366.82,240.56h0a18.06,18.06,0,0,1,8.87-2.21,14.86,14.86,0,0,1,6.25,1.33l.82.44,16.9,9.76,1.42.82,15.47,8.93a12.39,12.39,0,0,1,3.2,2.75,6.36,6.36,0,0,1,1.05,2.43c.38,2.44-1.11,4.95-4.17,6.72h0a18.06,18.06,0,0,1-8.87,2.2,14.71,14.71,0,0,1-6.25-1.32l-.82-.44-16.91-9.76-1.42-.82-15.47-8.93a12.51,12.51,0,0,1-3.19-2.75,6.42,6.42,0,0,1-1.05-2.43C362.27,244.84,363.76,242.33,366.82,240.56Z" transform="translate(-289.28 -71.89)"/><path class="cls-38" d="M367.42,241h0a17.34,17.34,0,0,1,8.61-2.13,14.12,14.12,0,0,1,6.06,1.3c.18.09.63.33.79.43l16.42,9.47,1.38.8,15,8.67a14.44,14.44,0,0,1,3.16,2.6,6.73,6.73,0,0,1,1.14,2.29c.47,2.35-.93,4.81-3.93,6.54h0a17.34,17.34,0,0,1-8.61,2.13,14.2,14.2,0,0,1-6.07-1.3l-.79-.43-16.41-9.48-1.38-.79-15-8.67a14.37,14.37,0,0,1-3.15-2.6,6.39,6.39,0,0,1-1.14-2.29C363,245.18,364.41,242.72,367.42,241Z" transform="translate(-289.28 -71.89)"/><path class="cls-39" d="M368,241.42h0a16.85,16.85,0,0,1,8.36-2.06,13.79,13.79,0,0,1,5.87,1.28l.76.42,15.92,9.19,1.34.78,14.56,8.4a17.34,17.34,0,0,1,3.12,2.45,6.55,6.55,0,0,1,1.22,2.16c.57,2.24-.73,4.65-3.69,6.35h0a16.81,16.81,0,0,1-8.35,2.06,13.79,13.79,0,0,1-5.87-1.28l-.76-.42-15.93-9.19-1.34-.78-14.56-8.4a17.34,17.34,0,0,1-3.12-2.45,6.69,6.69,0,0,1-1.21-2.16C363.77,245.53,365.07,243.12,368,241.42Z" transform="translate(-289.28 -71.89)"/><path class="cls-40" d="M368.63,241.85h0a16.28,16.28,0,0,1,8.09-2,13.24,13.24,0,0,1,5.68,1.27l.73.4,15.44,8.91,1.3.75,14.1,8.15a21.72,21.72,0,0,1,3.09,2.29,7.21,7.21,0,0,1,1.29,2c.67,2.14-.54,4.5-3.44,6.18h0a16.33,16.33,0,0,1-8.09,2,13.1,13.1,0,0,1-5.69-1.27c-.12-.05-.62-.33-.73-.4L385,261.23l-1.3-.75-14.11-8.14a21.85,21.85,0,0,1-3.08-2.3,7.26,7.26,0,0,1-1.3-2C364.51,245.88,365.72,243.52,368.63,241.85Z" transform="translate(-289.28 -71.89)"/><path class="cls-41" d="M369.23,242.27h0a15.81,15.81,0,0,1,7.84-1.91,12.87,12.87,0,0,1,5.49,1.25l.7.39,14.94,8.63,1.26.73,13.65,7.88a20.33,20.33,0,0,1,3.05,2.14,4.67,4.67,0,0,1,1.38,1.89c.77,2-.35,4.34-3.21,6h0a15.64,15.64,0,0,1-7.83,1.91,12.69,12.69,0,0,1-5.49-1.25l-.71-.39-14.94-8.62-1.26-.73-13.65-7.88a20.68,20.68,0,0,1-3.05-2.15,4.47,4.47,0,0,1-1.37-1.88C365.25,246.23,366.38,243.92,369.23,242.27Z" transform="translate(-289.28 -71.89)"/><path class="cls-42" d="M369.83,242.7h0a15.17,15.17,0,0,1,7.58-1.84,12.32,12.32,0,0,1,5.3,1.23l.67.38,14.45,8.35,1.23.7,13.19,7.62a28.07,28.07,0,0,1,3,2,4.37,4.37,0,0,1,1.46,1.74c.88,1.94-.16,4.2-3,5.81h0a15.07,15.07,0,0,1-7.58,1.84,12.32,12.32,0,0,1-5.3-1.23l-.67-.38-14.45-8.34-1.23-.71-13.19-7.61a28.07,28.07,0,0,1-3-2,4.57,4.57,0,0,1-1.46-1.75C366,246.58,367,244.32,369.83,242.7Z" transform="translate(-289.28 -71.89)"/><path class="cls-43" d="M370.43,243.13h0a14.59,14.59,0,0,1,7.33-1.76,11.7,11.7,0,0,1,5.11,1.21l.64.36,14,8.06,1.18.69L411.39,259c.14.08,2.92,1.73,3,1.85a4.59,4.59,0,0,1,1.54,1.61c1,1.83,0,4-2.72,5.63h0a14.58,14.58,0,0,1-7.32,1.76,11.85,11.85,0,0,1-5.12-1.21l-.64-.37-14-8.06-1.18-.68-12.74-7.35c-.14-.08-2.92-1.73-3-1.85a4.47,4.47,0,0,1-1.53-1.61C366.73,246.93,367.69,244.72,370.43,243.13Z" transform="translate(-289.28 -71.89)"/><path class="cls-44" d="M400.63,268.06l-15.23-8.79-15.22-8.79c-3.07-1.78-2.69-4.87.86-6.92h0c3.55-2.05,8.91-2.27,12-.5l15.23,8.79,15.22,8.79c3.07,1.77,2.69,4.87-.86,6.92h0C409.06,269.61,403.7,269.83,400.63,268.06Z" transform="translate(-289.28 -71.89)"/><path class="cls-45" d="M402.58,267.06l-37.74-21.79c-3.81-2.2-3.33-6,1.06-8.57h0c4.4-2.54,11.05-2.82,14.86-.62l37.74,21.79c3.81,2.2,3.33,6-1.07,8.58h0C413,269,406.38,269.26,402.58,267.06Z" transform="translate(-289.28 -71.89)"/><path class="cls-46" d="M417.43,265.45h0c-4.4,2.53-11.05,2.81-14.85.61l-37.74-21.79a4.61,4.61,0,0,1-2.53-3.25c-.24,1.59.59,3.13,2.53,4.25l37.74,21.79c3.8,2.2,10.45,1.92,14.85-.61h0c2.63-1.53,3.85-3.51,3.59-5.33C420.8,262.64,419.59,264.2,417.43,265.45Z" transform="translate(-289.28 -71.89)"/><path class="cls-47" d="M377.56,247.1a.21.21,0,0,1,.11-.16l7.28-4.2a.6.6,0,0,1,.27-.07.53.53,0,0,1,.28.07l3.26,1.88c.88.51,1.34,1,1.39,1.47s-.25.9-.91,1.28a3.16,3.16,0,0,1-1.28.41,4.32,4.32,0,0,1-1.26-.05.94.94,0,0,1,.11.86,1.57,1.57,0,0,1-.77.82,4.39,4.39,0,0,1-2.39.56,5.65,5.65,0,0,1-2.61-.77l-3.36-1.95Q377.56,247.19,377.56,247.1Zm4.48,1.29a2.49,2.49,0,0,0,1.23.35,2.24,2.24,0,0,0,1.14-.28q.49-.28.48-.66c0-.25-.21-.49-.59-.71L382.45,246l-2.26,1.3Zm3.31-2a2.33,2.33,0,0,0,1.16.35,1.88,1.88,0,0,0,1.06-.25q.46-.27.42-.6t-.63-.66l-1.74-1-2,1.16Z" transform="translate(-289.28 -71.89)"/><path class="cls-47" d="M386.85,251.79c-.05-.62.45-1.24,1.49-1.84l4.55-2.62a.5.5,0,0,1,.27-.08.53.53,0,0,1,.28.07l1,.6c.09.05.13.1.13.16s0,.11-.13.16l-4.54,2.63c-.59.34-.9.68-.91,1s.23.65.75,1a3.1,3.1,0,0,0,1.64.43,3.63,3.63,0,0,0,1.76-.52l4.54-2.63A.55.55,0,0,1,398,250a.51.51,0,0,1,.28.07l1,.6c.08,0,.12.1.12.16a.24.24,0,0,1-.13.16l-4.55,2.62a6.05,6.05,0,0,1-3.17.87,6.47,6.47,0,0,1-3.13-.92C387.43,253,386.9,252.41,386.85,251.79Z" transform="translate(-289.28 -71.89)"/><path class="cls-47" d="M396,257.71a.18.18,0,0,1,.11-.15l2.51-1.45,2-4.25.09-.09a.47.47,0,0,1,.24-.05.52.52,0,0,1,.23.05l1,.59a.24.24,0,0,1,.14.32l-1.35,3,5.14-.77h.27a.65.65,0,0,1,.28.08l1,.59c.07,0,.1.08.1.13a.17.17,0,0,1-.1.14.53.53,0,0,1-.15,0L400.16,257l-2.51,1.45a.55.55,0,0,1-.28.07.6.6,0,0,1-.27-.07l-1-.6A.19.19,0,0,1,396,257.71Z" transform="translate(-289.28 -71.89)"/><path class="cls-48" d="M373.38,178.72a.5.5,0,0,1-.5-.5v-2a.5.5,0,0,1,1,0v2A.5.5,0,0,1,373.38,178.72Zm0-4a.5.5,0,0,1-.5-.5v-2a.5.5,0,0,1,1,0v2A.5.5,0,0,1,373.38,174.72Zm0-4a.5.5,0,0,1-.5-.5v-2a.5.5,0,0,1,1,0v2A.5.5,0,0,1,373.38,170.72Zm0-4a.5.5,0,0,1-.5-.5v-2a.5.5,0,0,1,1,0v2A.5.5,0,0,1,373.38,166.72Zm0-4a.5.5,0,0,1-.5-.5v-2a.5.5,0,0,1,1,0v2A.5.5,0,0,1,373.38,162.72Zm0-4a.5.5,0,0,1-.5-.5v-2a.5.5,0,0,1,1,0v2A.5.5,0,0,1,373.38,158.72Zm0-4a.5.5,0,0,1-.5-.5v-2a.5.5,0,0,1,1,0v2A.5.5,0,0,1,373.38,154.72Zm0-4a.5.5,0,0,1-.5-.5v-2a.5.5,0,0,1,1,0v2A.5.5,0,0,1,373.38,150.72Zm0-4a.5.5,0,0,1-.5-.5v-2a.5.5,0,0,1,1,0v2A.5.5,0,0,1,373.38,146.72Zm0-4a.5.5,0,0,1-.5-.5v-2a.5.5,0,0,1,1,0v2A.5.5,0,0,1,373.38,142.72Zm0-4a.5.5,0,0,1-.5-.5v-2a.5.5,0,0,1,1,0v2A.5.5,0,0,1,373.38,138.72Zm0-4a.5.5,0,0,1-.5-.5v-2a.5.5,0,0,1,1,0v2A.5.5,0,0,1,373.38,134.72Zm0-4a.5.5,0,0,1-.5-.5v-2a.5.5,0,0,1,1,0v2A.5.5,0,0,1,373.38,130.72Zm0-4a.5.5,0,0,1-.5-.5v-2a.5.5,0,0,1,1,0v2A.5.5,0,0,1,373.38,126.72Z" transform="translate(-289.28 -71.89)"/><path class="cls-32" d="M496.17,151.82l10.06,5.82a1.65,1.65,0,0,0,1.5,0,.46.46,0,0,0,0-.87L497.66,151a1.65,1.65,0,0,0-1.5,0C495.75,151.2,495.75,151.58,496.17,151.82Zm9,6.41-10.06-5.81a1.65,1.65,0,0,0-1.5,0c-.42.23-.41.62,0,.86l10.07,5.81a1.68,1.68,0,0,0,1.5,0A.46.46,0,0,0,505.2,158.23Zm-2.52,1.46-10.07-5.81a1.65,1.65,0,0,0-1.5,0,.46.46,0,0,0,0,.87l10.06,5.81a1.65,1.65,0,0,0,1.5,0C503.1,160.32,503.09,159.93,502.68,159.69Z" transform="translate(-289.28 -71.89)"/><polygon class="cls-33" points="164.94 203.04 91.91 160.88 232.03 79.57 305.06 121.73 164.94 203.04"/><polygon class="cls-34" points="165.22 202.14 93.21 160.56 231.61 80.24 303.62 121.82 165.22 202.14"/><polygon class="cls-35" points="165.49 201.24 94.5 160.25 231.2 80.92 302.19 121.91 165.49 201.24"/><polygon class="cls-36" points="165.77 200.33 95.8 159.94 230.78 81.59 300.75 121.99 165.77 200.33"/><polygon class="cls-37" points="166.05 199.43 97.1 159.62 230.36 82.27 299.31 122.08 166.05 199.43"/><polygon class="cls-38" points="166.32 198.53 98.4 159.31 229.95 82.95 297.87 122.17 166.32 198.53"/><polygon class="cls-39" points="166.6 197.62 99.69 159 229.53 83.62 296.44 122.25 166.6 197.62"/><polygon class="cls-40" points="166.88 196.72 100.99 158.68 229.11 84.3 295 122.34 166.88 196.72"/><polygon class="cls-41" points="167.16 195.82 102.29 158.37 228.69 84.97 293.56 122.42 167.16 195.82"/><polygon class="cls-42" points="167.43 194.91 103.59 158.05 228.28 85.65 292.12 122.51 167.43 194.91"/><polygon class="cls-43" points="167.71 194.01 104.88 157.74 227.86 86.33 290.69 122.6 167.71 194.01"/><polygon class="cls-44" points="167.99 193.11 106.18 157.42 227.44 87 289.25 122.69 167.99 193.11"/><polygon class="cls-49" points="165.86 191 95.39 150.32 231.21 71.49 301.68 112.18 165.86 191"/><polygon class="cls-50" points="285.76 121.47 215.29 80.78 234.41 69.64 304.88 110.33 285.76 121.47"/><path class="cls-51" d="M457.51,250.81l-19.63-11.33c-1.91-1.1-1.67-3,.53-4.29h0a8.28,8.28,0,0,1,7.44-.31l19.63,11.33c1.9,1.1,1.66,3-.54,4.29h0C462.74,251.77,459.41,251.91,457.51,250.81Z" transform="translate(-289.28 -71.89)"/><path class="cls-52" d="M431.4,227.28c1.86,1.07,1.87,2.81,0,3.87a7.39,7.39,0,0,1-6.7,0L406.2,220.45c-1.85-1.07-1.86-2.81,0-3.87a7.41,7.41,0,0,1,6.71,0l18.51,10.69Zm.64-.37-18.51-10.69a8.82,8.82,0,0,0-8,0c-2.2,1.27-2.19,3.33,0,4.61l18.52,10.69a8.82,8.82,0,0,0,8,0c2.2-1.27,2.19-3.33,0-4.61Z" transform="translate(-289.28 -71.89)"/><path class="cls-48" d="M513.47,170.47l-11.39,6.58-11.61-6.71,11.39-6.58,11.61,6.71Zm1.93,0-13.54-7.82-13.32,7.69,13.54,7.82,13.32-7.69Z" transform="translate(-289.28 -71.89)"/><polygon class="cls-48" points="249.43 116.29 226.3 102.94 227.24 102.39 250.36 115.75 249.43 116.29"/><polygon class="cls-48" points="192.07 172.87 126.12 134.79 126.41 134.62 192.37 172.69 192.07 172.87"/><polygon class="cls-48" points="246.74 117.84 223.62 104.49 224.56 103.94 247.68 117.29 246.74 117.84"/><polygon class="cls-48" points="236.44 115.04 220.89 106.06 221.83 105.52 237.38 114.5 236.44 115.04"/><path class="cls-48" d="M489.25,184.45,477.85,191l-11.61-6.7,11.4-6.58,11.61,6.7Zm1.93,0-13.55-7.82-13.31,7.69,13.54,7.82,13.32-7.69Z" transform="translate(-289.28 -71.89)"/><polygon class="cls-48" points="225.2 130.27 202.08 116.92 203.02 116.38 226.14 129.73 225.2 130.27"/><polygon class="cls-48" points="222.52 131.82 199.4 118.47 200.34 117.93 223.46 131.28 222.52 131.82"/><polygon class="cls-48" points="212.22 129.02 196.67 120.05 197.61 119.5 213.16 128.48 212.22 129.02"/><path class="cls-48" d="M465,198.48l-11.4,6.58L442,198.35l11.4-6.58L465,198.48Zm1.93,0-13.55-7.82L440,198.35l13.55,7.82,13.32-7.69Z" transform="translate(-289.28 -71.89)"/><polygon class="cls-48" points="200.91 144.3 177.78 130.95 178.72 130.41 201.85 143.76 200.91 144.3"/><polygon class="cls-48" points="198.23 145.85 175.1 132.5 176.04 131.96 199.16 145.31 198.23 145.85"/><polygon class="cls-48" points="187.92 143.05 172.38 134.07 173.31 133.53 188.86 142.51 187.92 143.05"/><path class="cls-48" d="M550.32,199.14c-1.59-.93-1.6-2.42,0-3.34a6.4,6.4,0,0,1,5.78,0c1.6.92,1.61,2.42,0,3.34A6.42,6.42,0,0,1,550.32,199.14Zm5.36-3.09a5.49,5.49,0,0,0-5,0c-1.36.78-1.35,2.07,0,2.86a5.47,5.47,0,0,0,5,0C557.06,198.12,557.05,196.84,555.68,196.05Z" transform="translate(-289.28 -71.89)"/><path class="cls-48" d="M553.79,197.81h.83c.32,0,.58-.15.58-.33s-.26-.34-.58-.34h-.83v-.48c0-.19-.27-.34-.59-.34s-.58.15-.58.34v.48h-.83c-.32,0-.58.15-.58.34a.31.31,0,0,0,.17.24.9.9,0,0,0,.42.1h.82v.48a.29.29,0,0,0,.17.24.86.86,0,0,0,.41.1c.33,0,.59-.15.59-.34Z" transform="translate(-289.28 -71.89)"/><path class="cls-48" d="M526.41,212.94c-1.6-.92-1.6-2.42,0-3.34a6.42,6.42,0,0,1,5.79,0c1.6.92,1.6,2.42,0,3.33A6.39,6.39,0,0,1,526.41,212.94Zm5.36-3.09a5.52,5.52,0,0,0-5,0c-1.36.79-1.36,2.07,0,2.87a5.49,5.49,0,0,0,5,0C533.14,211.93,533.14,210.64,531.77,209.85Z" transform="translate(-289.28 -71.89)"/><path class="cls-48" d="M529.88,211.62h.83c.32,0,.58-.15.58-.34s-.26-.33-.59-.34h-.82v-.47c0-.19-.26-.34-.58-.34s-.58.15-.58.33v.48h-.83c-.32,0-.58.15-.58.34a.29.29,0,0,0,.17.23.76.76,0,0,0,.41.1h.83v.47a.28.28,0,0,0,.17.24.83.83,0,0,0,.41.1c.32,0,.58-.15.58-.33Z" transform="translate(-289.28 -71.89)"/><path class="cls-48" d="M501.91,227.09c-1.6-.92-1.6-2.42,0-3.34a6.42,6.42,0,0,1,5.79,0c1.6.92,1.6,2.42,0,3.34A6.42,6.42,0,0,1,501.91,227.09Zm5.36-3.09a5.49,5.49,0,0,0-5,0c-1.36.79-1.36,2.07,0,2.86a5.49,5.49,0,0,0,5,0C508.64,226.07,508.64,224.79,507.27,224Z" transform="translate(-289.28 -71.89)"/><path class="cls-48" d="M505.38,225.76h.83c.32,0,.58-.15.58-.33s-.26-.34-.58-.34h-.83v-.48c0-.19-.26-.34-.58-.34s-.58.15-.58.34v.48h-.83c-.32,0-.58.15-.58.34a.31.31,0,0,0,.17.24.87.87,0,0,0,.42.1h.82v.48a.29.29,0,0,0,.17.24.83.83,0,0,0,.41.1c.32,0,.58-.15.58-.34Z" transform="translate(-289.28 -71.89)"/><path class="cls-53" d="M536.05,155.22l-8.9-5.13.9-1.1c.1-.12.06-.26-.11-.35l-2.58-1.5a.87.87,0,0,0-.77,0c-.22.12-.21.32,0,.44l2.32,1.34-5.17,6.3c-.1.12-.06.26.11.36l.82.47h-.17c-.79,0-1.43.37-1.42.83s.64.83,1.43.83,1.43-.37,1.43-.83a.29.29,0,0,0,0-.09l1.79,1h-.16c-.8,0-1.43.37-1.43.82s.64.83,1.43.83,1.43-.36,1.43-.82a.36.36,0,0,0,0-.1l.39.22a.82.82,0,0,0,.76,0c.22-.12.22-.32,0-.44l-5.22-3,1.05-1.28,6.38,3.68a1.84,1.84,0,0,0,1.44.09l4.1-1.53C536.48,156,536.57,155.52,536.05,155.22Z" transform="translate(-289.28 -71.89)"/><path class="cls-54" d="M534.92,155.29a7.78,7.78,0,0,1-7,0c-1.94-1.13-1.95-2.94,0-4.05a7.75,7.75,0,0,1,7,0C536.84,152.36,536.85,154.17,534.92,155.29Z" transform="translate(-289.28 -71.89)"/><path class="cls-47" d="M532.15,153.46a.52.52,0,0,1,.23.51.77.77,0,0,1-.44.5,1.77,1.77,0,0,1-.57.21,2.28,2.28,0,0,1-.64,0,3.39,3.39,0,0,1-.68-.13,3.13,3.13,0,0,1-.68-.3,1.89,1.89,0,0,1-.61-.51.72.72,0,0,1-.14-.54l.94-.06a.5.5,0,0,0,.06.36,1.1,1.1,0,0,0,.4.35,1.62,1.62,0,0,0,.65.22,1,1,0,0,0,.59-.13c.19-.11.26-.24.23-.37s-.19-.29-.47-.45l-.15-.09.55-.32.17.1a1.55,1.55,0,0,0,.69.22,1,1,0,0,0,.57-.12c.15-.08.21-.18.18-.28a.62.62,0,0,0-.29-.3,1.54,1.54,0,0,0-.57-.19,2.08,2.08,0,0,0-.66,0l0-.57H532a4.17,4.17,0,0,1,.49.08,4.74,4.74,0,0,1,.5.15,4.91,4.91,0,0,1,.46.22,1.64,1.64,0,0,1,.44.34.82.82,0,0,1,.21.35.4.4,0,0,1-.05.32.8.8,0,0,1-.31.29,1.94,1.94,0,0,1-.36.15,1.85,1.85,0,0,1-.41.07,2,2,0,0,1-.43,0A1.67,1.67,0,0,1,532.15,153.46Z" transform="translate(-289.28 -71.89)"/><path class="cls-55" d="M577.14,183.56h3.47c.3,0,.54-.14.54-.32s-.24-.31-.54-.31h-3.47v-2c0-.18-.25-.32-.55-.32s-.54.14-.54.32v2h-3.47c-.3,0-.55.14-.54.32a.28.28,0,0,0,.16.22.74.74,0,0,0,.38.09h3.47v2a.25.25,0,0,0,.16.22.78.78,0,0,0,.39.1c.3,0,.54-.14.54-.32Z" transform="translate(-289.28 -71.89)"/><polygon class="cls-56" points="165.86 190.25 96.48 149.69 95.39 150.32 165.86 191 304.73 110.34 303.65 110.21 165.86 190.25"/><polygon class="cls-33" points="231.48 148.55 156.93 105.51 186.56 88.5 261.11 131.54 231.48 148.55"/><polygon class="cls-34" points="231.26 147.9 157.87 105.52 186.73 88.94 260.13 131.32 231.26 147.9"/><polygon class="cls-35" points="231.04 147.24 158.81 105.53 186.91 89.39 259.15 131.09 231.04 147.24"/><polygon class="cls-36" points="230.83 146.59 159.75 105.55 187.09 89.83 258.17 130.87 230.83 146.59"/><polygon class="cls-37" points="230.61 145.93 160.68 105.56 187.27 90.27 257.19 130.65 230.61 145.93"/><polygon class="cls-38" points="230.39 145.28 161.62 105.57 187.45 90.72 256.22 130.42 230.39 145.28"/><polygon class="cls-39" points="230.17 144.62 162.56 105.58 187.62 91.16 255.24 130.19 230.17 144.62"/><polygon class="cls-40" points="229.96 143.97 163.5 105.6 187.8 91.6 254.26 129.97 229.96 143.97"/><polygon class="cls-41" points="229.74 143.31 164.44 105.61 187.98 92.04 253.28 129.75 229.74 143.31"/><polygon class="cls-42" points="229.52 142.66 165.37 105.62 188.16 92.48 252.3 129.52 229.52 142.66"/><polygon class="cls-43" points="229.3 142 166.31 105.64 188.34 92.93 251.33 129.3 229.3 142"/><polygon class="cls-44" points="229.09 141.35 167.25 105.65 188.51 93.37 250.35 129.07 229.09 141.35"/><polygon class="cls-57" points="232.37 141.56 162.98 101.5 186.84 87.73 256.23 127.79 232.37 141.56"/><path class="cls-32" d="M488.87,174.85l-11.22,6.48-11.43-6.6,11.22-6.48,11.43,6.6Zm1.9,0-13.34-7.7-13.11,7.57,13.34,7.7,13.11-7.57Z" transform="translate(-289.28 -71.89)"/><polygon class="cls-32" points="224.44 120.4 201.67 107.26 202.59 106.73 225.36 119.87 224.44 120.4"/><polygon class="cls-32" points="221.79 121.93 199.03 108.78 199.95 108.25 222.72 121.39 221.79 121.93"/><polygon class="cls-32" points="211.65 119.17 196.34 110.33 197.27 109.8 212.58 118.64 211.65 119.17"/><g class="cls-3"><path class="cls-32" d="M525.46,202.91c-1.57-.91-1.58-2.38,0-3.29a6.32,6.32,0,0,1,5.7,0c1.57.91,1.58,2.39,0,3.29A6.32,6.32,0,0,1,525.46,202.91Zm5.27-3a5.38,5.38,0,0,0-4.88,0c-1.34.77-1.33,2,0,2.82a5.41,5.41,0,0,0,4.88,0C532.09,201.91,532.08,200.65,530.73,199.87Z" transform="translate(-289.28 -71.89)"/><path class="cls-32" d="M528.88,201.6h.81c.32,0,.58-.15.58-.34s-.26-.33-.58-.33h-.82v-.47c0-.18-.26-.33-.58-.33s-.57.14-.57.33v.47h-.81c-.32,0-.58.14-.57.33a.28.28,0,0,0,.16.23.86.86,0,0,0,.41.1h.82v.47a.29.29,0,0,0,.17.24.83.83,0,0,0,.41.1c.31,0,.57-.15.57-.34Z" transform="translate(-289.28 -71.89)"/></g><g class="cls-3"><path class="cls-48" d="M506.49,130.63l-41.05,23.7-46.55-26.88,41.05-23.7,46.55,26.88Zm2.06,0-48.62-28.07-43.1,24.89,48.61,28.07,43.11-24.89Z" transform="translate(-289.28 -71.89)"/><path class="cls-48" d="M421.9,138.59,410,145.45l-17.1-9.87,11.89-6.86,17.09,9.87Zm2.06,0L404.8,127.53l-13.93,8L410,146.64l13.94-8Z" transform="translate(-289.28 -71.89)"/><path class="cls-48" d="M442.57,150.52l-11.88,6.86-17.09-9.86,11.88-6.87,17.09,9.87Zm2.06,0-19.16-11.06-13.93,8,19.16,11.06,13.93-8Z" transform="translate(-289.28 -71.89)"/><path class="cls-48" d="M463.25,162.46l-11.88,6.86-17.1-9.87,11.89-6.86,17.09,9.87Zm2.06,0L446.15,151.4l-13.94,8,19.16,11.06,13.94-8Z" transform="translate(-289.28 -71.89)"/><polygon class="cls-48" points="150.28 105.24 89.95 70.41 91.84 69.32 152.17 104.15 150.28 105.24"/><polygon class="cls-48" points="144.88 108.36 84.55 73.53 86.44 72.43 146.77 107.26 144.88 108.36"/><polygon class="cls-48" points="110.77 95 79.06 76.7 80.95 75.61 112.66 93.91 110.77 95"/><path class="cls-48" d="M319.57,186.8a1.4,1.4,0,0,1-.49-.94c0-.19.28-.35.62-.35a5.9,5.9,0,0,0,1.33-.15,1.21,1.21,0,0,0,.86,0c.22-.13.3-.31.19-.42.89-.57,1.31-1.25,0-2a3.4,3.4,0,0,0-3.44,0,1,1,0,0,0-.73.11.3.3,0,0,0,0,.5,1.33,1.33,0,0,0-.25.77c0,.2-.27.36-.61.36a5.12,5.12,0,0,1-1.63-.29,2.74,2.74,0,0,0-2.11.14l-1,.58c-.2.11-.19.29,0,.4l5.31,3.06a.75.75,0,0,0,.7,0l1-.58C319.9,187.69,320,187.19,319.57,186.8Z" transform="translate(-289.28 -71.89)"/><path class="cls-48" d="M371.43,215.53a2.65,2.65,0,0,0,.37-.25l1.3.18a2.49,2.49,0,0,0,.5-.71l-1.13-.41a1.34,1.34,0,0,0,0-.66l1.14-.4a2.58,2.58,0,0,0-.52-.71l-1.3.17a4,4,0,0,0-.37-.25,3,3,0,0,0-.44-.21l.31-.75a7,7,0,0,0-1.24-.3l-.7.65a7.23,7.23,0,0,0-1.14,0l-.7-.66a8.31,8.31,0,0,0-1.24.3l.32.75a3.55,3.55,0,0,0-.44.21,3.27,3.27,0,0,0-.36.25l-1.3-.18a2.39,2.39,0,0,0-.51.72l1.14.4a1.23,1.23,0,0,0,0,.66l-1.13.4a2.39,2.39,0,0,0,.51.72l1.3-.18a2.65,2.65,0,0,0,.37.25l.44.22-.31.75a7.22,7.22,0,0,0,1.24.29l.7-.65a7.23,7.23,0,0,0,1.14,0l.7.66a7,7,0,0,0,1.24-.3l-.32-.75A3,3,0,0,0,371.43,215.53Zm-3.7-.91a.65.65,0,0,1,0-1.23,2.36,2.36,0,0,1,2.12,0c.59.34.59.88,0,1.22A2.36,2.36,0,0,1,367.73,214.62Z" transform="translate(-289.28 -71.89)"/><path class="cls-48" d="M327.92,194.66l1.62.94,2.94-1.7-1.62-.93Zm2.46,1.42L332,197l4.8-2.77-1.62-.93Zm9.13-2.43-6.67,3.85,1.62.93,6.67-3.85Z" transform="translate(-289.28 -71.89)"/><path class="cls-48" d="M356.46,203.51a3.92,3.92,0,0,0-2.57-.37c.27-.51.06-1.08-.64-1.49a4,4,0,0,0-3.61,0c-1.82,1-.65,4.31-.65,4.31s5.66.68,7.48-.37A1.1,1.1,0,0,0,356.46,203.51Z" transform="translate(-289.28 -71.89)"/><path class="cls-48" d="M469.3,82.24l10.09,5.82a1.65,1.65,0,0,0,1.5,0c.42-.23.41-.62,0-.86L470.8,81.38a1.62,1.62,0,0,0-1.5,0A.46.46,0,0,0,469.3,82.24Zm9.06,6.42-10.09-5.82a1.62,1.62,0,0,0-1.5,0,.46.46,0,0,0,0,.87l10.08,5.82a1.65,1.65,0,0,0,1.5,0C478.78,89.29,478.77,88.9,478.36,88.66Zm-2.53,1.46L465.75,84.3a1.64,1.64,0,0,0-1.51,0,.46.46,0,0,0,0,.87L474.33,91a1.65,1.65,0,0,0,1.5,0C476.25,90.75,476.25,90.36,475.83,90.12Z" transform="translate(-289.28 -71.89)"/><path class="cls-48" d="M364.91,227.1l-72.06-41.61c-4.75-2.74-4.77-7.18-.05-9.9l169.68-98c4.71-2.72,12.41-2.71,17.16,0l72.06,41.61c4.75,2.74,4.77,7.18,0,9.9l-169.68,98C377.36,229.85,369.66,229.84,364.91,227.1Zm114-149c-4.36-2.52-11.44-2.54-15.78,0L293.48,176c-4.33,2.51-4.31,6.6,0,9.12l72.07,41.6c4.36,2.52,11.45,2.54,15.78,0l169.69-98c4.33-2.51,4.31-6.6-.05-9.12Z" transform="translate(-289.28 -71.89)"/><path class="cls-48" d="M538.23,124.22c0,.31-.43.56-1,.56s-1-.26-1-.57.43-.55,1-.55S538.23,123.91,538.23,124.22Z" transform="translate(-289.28 -71.89)"/><path class="cls-48" d="M536.75,119.73h-.16v.56h.16c4,0,7.29,1.9,7.3,4.22v0h1v0C545,121.88,541.3,119.74,536.75,119.73Z" transform="translate(-289.28 -71.89)"/><path class="cls-48" d="M536.76,122h-.16v.56h.16c1.88,0,3.4.89,3.41,2v0h1v0C541.13,123.11,539.17,122,536.76,122Z" transform="translate(-289.28 -71.89)"/><path class="cls-48" d="M536.75,120.85h-.16v.56h.16c2.94,0,5.34,1.4,5.35,3.1h1v0C543.07,122.5,540.23,120.86,536.75,120.85Z" transform="translate(-289.28 -71.89)"/><polygon class="cls-48" points="228.74 42.01 199.65 25.22 201.53 24.13 230.62 40.92 228.74 42.01"/><path class="cls-48" d="M381.8,192.27l-28.62-16.53c-3.7-2.13-3.72-5.6,0-7.72a14.78,14.78,0,0,1,13.38,0l28.62,16.52c3.7,2.14,3.72,5.61,0,7.73A14.84,14.84,0,0,1,381.8,192.27Zm-16.3-23.64a12.59,12.59,0,0,0-11.33,0c-3.11,1.8-3.09,4.73,0,6.54l28.61,16.52a12.53,12.53,0,0,0,11.33,0c3.11-1.79,3.09-4.73,0-6.53Z" transform="translate(-289.28 -71.89)"/><path class="cls-48" d="M486.42,148.56a.48.48,0,0,1-.29-.4c0-.31.43-.56,1-.56l7.76,0,0-4.48c0-.31.43-.56,1-.56s1,.25,1,.56l0,5.6H487.1A1.51,1.51,0,0,1,486.42,148.56Z" transform="translate(-289.28 -71.89)"/><path class="cls-48" d="M428.7,115.24a.51.51,0,0,1-.29-.4l0-5.61,9.71,0c.53,0,1,.26,1,.56s-.43.56-1,.56h-7.76l0,4.48c0,.31-.43.56-1,.56A1.41,1.41,0,0,1,428.7,115.24Z" transform="translate(-289.28 -71.89)"/></g><g class="cls-3"><path class="cls-58" d="M368.91,102.19c0,.6-.83,1.08-1.87,1.08s-1.88-.49-1.88-1.09.83-1.08,1.87-1.08S368.91,101.59,368.91,102.19Z" transform="translate(-289.28 -71.89)"/><path class="cls-58" d="M374.87,105.63c0,.6-.83,1.08-1.87,1.08s-1.88-.49-1.88-1.09.83-1.08,1.87-1.08S374.87,105,374.87,105.63Z" transform="translate(-289.28 -71.89)"/><path class="cls-58" d="M376.86,105.84,366.81,100l6-10-3.53-2c-.29-.16-.29-.43,0-.59a1.1,1.1,0,0,1,1,0l4.18,2.41-6,10,9.4,5.43a.31.31,0,0,1,0,.59A1.08,1.08,0,0,1,376.86,105.84Z" transform="translate(-289.28 -71.89)"/><path class="cls-58" d="M379.35,104.22,370.22,99c-.29-.17-.29-.43,0-.59a1.1,1.1,0,0,1,1,0l8.72,5,6.71-2.5-13.12-7.58a.31.31,0,0,1,0-.59,1.14,1.14,0,0,1,1,0l13.76,8a.34.34,0,0,1,.21.34.44.44,0,0,1-.33.3l-7.95,3A1.14,1.14,0,0,1,379.35,104.22Z" transform="translate(-289.28 -71.89)"/><path class="cls-58" d="M355.69,110.14c-11.33-6.54-11.39-17.15-.13-23.65s29.65-6.47,41,.07,11.39,17.16.13,23.66S367,116.69,355.69,110.14Zm39.48-22.79c-10.57-6.1-27.72-6.13-38.23-.07s-10.45,16,.12,22.08,27.72,6.13,38.23.06S405.74,93.46,395.17,87.35Z" transform="translate(-289.28 -71.89)"/><path class="cls-59" d="M349.93,113.47c-14.53-8.39-14.6-22-.16-30.33s38-8.29,52.53.1,14.6,22,.16,30.32S364.46,121.86,349.93,113.47Zm50.32-29c-13.39-7.73-35.11-7.77-48.42-.09s-13.24,20.23.15,28,35.11,7.77,48.42.08S413.64,92.15,400.25,84.42Z" transform="translate(-289.28 -71.89)"/><path class="cls-60" d="M343.79,117c-17.94-10.36-18-27.16-.21-37.45s46.93-10.24,64.86.12,18,27.15.21,37.45S361.72,127.38,343.79,117Zm61.92-35.75c-16.42-9.49-43.06-9.53-59.38-.11s-16.24,24.8.19,34.28,43.06,9.53,59.38.11S422.13,90.75,405.71,81.27Z" transform="translate(-289.28 -71.89)"/></g><circle class="cls-61" cx="84.11" cy="108" r="10"/><path class="cls-48" d="M373.38,240.89a.5.5,0,0,1-.5-.5v-1.17a.5.5,0,0,1,1,0v1.17A.5.5,0,0,1,373.38,240.89Zm0-3.17a.5.5,0,0,1-.5-.5v-2a.5.5,0,0,1,1,0v2A.5.5,0,0,1,373.38,237.72Zm0-4a.5.5,0,0,1-.5-.5v-2a.5.5,0,0,1,1,0v2A.5.5,0,0,1,373.38,233.72Zm0-4a.5.5,0,0,1-.5-.5v-2a.5.5,0,0,1,1,0v2A.5.5,0,0,1,373.38,229.72Zm0-4a.5.5,0,0,1-.5-.5v-2a.5.5,0,0,1,1,0v2A.5.5,0,0,1,373.38,225.72Zm0-4a.5.5,0,0,1-.5-.5v-2a.5.5,0,0,1,1,0v2A.5.5,0,0,1,373.38,221.72Zm0-4a.5.5,0,0,1-.5-.5v-2a.5.5,0,0,1,1,0v2A.5.5,0,0,1,373.38,217.72Zm0-4a.5.5,0,0,1-.5-.5v-2a.5.5,0,0,1,1,0v2A.5.5,0,0,1,373.38,213.72Zm0-4a.5.5,0,0,1-.5-.5v-2a.5.5,0,0,1,1,0v2A.5.5,0,0,1,373.38,209.72Zm0-4a.5.5,0,0,1-.5-.5v-2a.5.5,0,0,1,1,0v2A.5.5,0,0,1,373.38,205.72Zm0-4a.5.5,0,0,1-.5-.5v-2a.5.5,0,0,1,1,0v2A.5.5,0,0,1,373.38,201.72Zm0-4a.5.5,0,0,1-.5-.5v-2a.5.5,0,0,1,1,0v2A.5.5,0,0,1,373.38,197.72Zm0-4a.5.5,0,0,1-.5-.5v-2a.5.5,0,0,1,1,0v2A.5.5,0,0,1,373.38,193.72Zm0-4a.5.5,0,0,1-.5-.5v-2a.5.5,0,0,1,1,0v2A.5.5,0,0,1,373.38,189.72Z" transform="translate(-289.28 -71.89)"/><circle class="cls-62" cx="84.11" cy="168.5" r="10"/><path class="cls-63" d="M479,78.05c-4.36-2.52-11.44-2.54-15.78,0L293.48,176c-4.33,2.51-4.31,6.6,0,9.12l72.07,41.6c4.36,2.52,11.45,2.54,15.78,0l169.69-98c4.33-2.51,4.31-6.6-.05-9.12Z" transform="translate(-289.28 -71.89)"/></g></g></svg>