<svg width="302" height="220" viewBox="0 0 302 220" fill="none" xmlns="http://www.w3.org/2000/svg"><path d="M33.4 178c-4.5.3-13.5 3.1-15.7 7.4-5.9 4-7.8 11.5-7.7 18.1 2.5 12.8 13.3 19 25.7 15.1 8.2-3 14.9-9.9 16.9-18.5 2.3-12.4-6.5-22.4-19.2-22z" fill="#FFD000"/><path d="M0 182.4c0 2 2.9 2 2.9 0 0-1.9-2.9-1.9-2.9 0z" fill="#1B1B20"/><path d="M182.2 0C157 0 136 13 115.5 26c-56.1 22.2-78.3 99.9-51 151.2 26.4 37.3 76.7 43 118.9 36.4C296.2 199.3 296.8 11.8 182.2 0z" fill="#FFD000"/><path d="M295 175c0 4 6.2 4 6.2 0s-6.2-4-6.2 0zM273.1 183.2c-1.2.1-2.6.5-3.3 1.5-5 3.3 0 10.9 5.3 7.8 3.7-2.5 2.9-9.1-2-9.3zm.3 2.6c2.2.8 1.7 3.6 0 4.7-2.5.8-4-1.9-2.4-3.8.9-.3 1.5-1.1 2.4-.9zM265 170.4c0 2 2.9 2 2.9 0 0-1.9-2.9-1.9-2.9 0zM70 202.4c0 2 2.9 2 2.9 0 0-1.9-2.9-1.9-2.9 0z" fill="#1B1B20"/></svg>
